<?xml version="1.0" standalone="no"?>
<!DOCTYPE svg PUBLIC "-//W3C//DTD SVG 20010904//EN"
 "http://www.w3.org/TR/2001/REC-SVG-20010904/DTD/svg10.dtd">
<svg version="1.0" xmlns="http://www.w3.org/2000/svg"
 width="728.000000pt" height="728.000000pt" viewBox="0 0 728.000000 728.000000"
 preserveAspectRatio="xMidYMid meet">
<metadata>
Created by potrace 1.11, written by Peter Selinger 2001-2013
</metadata>
<g transform="translate(0.000000,728.000000) scale(0.100000,-0.100000)"
fill="#000000" stroke="none">
<path d="M4913 7225 c-159 -83 -295 -198 -388 -329 -11 -16 -25 -33 -30 -40
-28 -30 -169 -279 -165 -288 1 -2 -3 -14 -8 -28 -69 -168 -107 -282 -116 -340
-3 -19 -9 -46 -12 -60 -10 -36 -10 -375 0 -435 4 -27 10 -63 12 -80 2 -16 5
-37 7 -45 4 -14 16 -75 22 -110 13 -69 122 -474 136 -505 36 -80 34 -87 -40
-163 -57 -59 -77 -72 -132 -90 -74 -23 -96 -29 -162 -37 -44 -6 -48 -5 -44 12
62 216 94 305 123 345 l24 32 -28 12 c-26 10 -71 22 -172 42 -48 10 -563 6
-625 -4 -51 -9 -329 -11 -400 -4 -123 13 -475 202 -695 373 -92 72 -250 233
-370 376 -25 29 -50 59 -55 65 -21 22 -66 85 -66 90 2 14 0 22 -8 35 -9 13
-30 7 -70 -23 -31 -23 -238 -233 -276 -281 -22 -28 -43 -52 -46 -55 -3 -3 -33
-43 -67 -90 -34 -47 -65 -89 -70 -95 -19 -23 -124 -200 -160 -267 -89 -166
-159 -346 -178 -458 -3 -14 -7 -32 -9 -40 -7 -24 -18 -92 -20 -130 -2 -19 -4
-35 -5 -35 -4 0 -11 -129 -13 -253 l-3 -132 -55 -55 c-29 -29 -63 -64 -75 -77
-25 -29 -109 -141 -109 -148 0 -3 -16 -32 -36 -65 -19 -33 -52 -100 -73 -150
-61 -147 -79 -185 -88 -185 -4 0 -8 -7 -8 -15 0 -8 -15 -46 -34 -85 -19 -38
-33 -70 -31 -70 3 0 -4 -20 -15 -45 -11 -25 -20 -49 -20 -53 0 -4 -5 -23 -10
-42 -9 -35 -20 -88 -25 -125 -2 -11 -4 -20 -5 -20 -7 0 -23 -188 -22 -260 0
-77 10 -216 18 -255 3 -14 7 -38 10 -55 3 -16 9 -44 15 -61 5 -17 11 -40 13
-50 2 -10 14 -57 26 -104 23 -90 30 -124 35 -180 2 -19 4 -37 5 -40 1 -3 1 -9
0 -15 -5 -25 -3 -95 2 -101 4 -3 3 -16 -1 -28 -5 -11 -5 -30 -1 -41 4 -11 4
-29 0 -40 -9 -25 10 -87 37 -118 45 -52 87 -86 114 -92 16 -4 29 -10 29 -13 0
-4 2 -52 4 -108 2 -70 8 -108 19 -125 9 -13 16 -28 16 -34 1 -22 99 -110 148
-132 70 -32 164 -36 190 -8 44 49 45 49 142 0 87 -43 272 -111 329 -120 15 -3
50 -10 77 -15 28 -6 64 -13 80 -15 17 -2 46 -6 65 -9 43 -6 136 -14 255 -21
102 -6 188 -14 191 -18 2 -1 5 -18 8 -37 7 -40 25 -118 34 -140 3 -8 6 -17 7
-20 5 -23 48 -126 53 -130 4 -3 18 -26 31 -52 13 -26 36 -62 53 -80 16 -18 39
-44 51 -59 12 -14 42 -41 67 -60 25 -19 49 -39 55 -45 5 -6 28 -24 50 -40 22
-16 42 -32 45 -35 17 -20 190 -128 270 -167 166 -82 226 -102 308 -102 l61 0
76 151 c41 84 84 163 94 178 28 40 41 101 42 196 l1 50 112 3 c145 3 226 9
308 22 70 12 73 13 128 24 59 12 74 14 98 15 23 1 24 3 21 92 -2 50 -9 123
-16 163 -7 39 -15 82 -17 96 -7 40 -27 123 -36 145 -4 11 -18 52 -30 90 -13
39 -34 93 -47 122 -12 28 -23 54 -23 56 0 3 24 15 53 27 28 12 54 26 57 29 3
4 52 36 110 71 58 35 107 66 110 69 15 19 63 41 78 37 9 -3 42 -8 72 -11 55
-6 95 -12 95 -15 0 -1 18 -3 40 -4 22 -2 65 -7 95 -12 89 -13 263 -8 378 11
23 4 154 87 182 115 38 39 68 90 87 145 12 33 39 112 61 175 56 162 99 298
128 405 2 6 5 19 7 30 3 11 15 58 27 105 12 47 24 95 26 108 6 32 11 59 24
122 6 30 13 66 15 80 2 14 6 36 9 50 2 14 7 47 11 74 3 27 8 52 9 55 4 6 9 41
21 137 2 22 8 67 13 100 4 32 7 100 7 149 -1 123 -20 170 -86 213 -55 36 -71
37 -211 6 -33 -7 -36 10 -13 75 8 23 15 45 15 49 4 39 23 82 38 83 151 4 334
21 382 34 8 2 31 7 50 10 32 6 85 18 135 31 11 3 25 6 30 8 59 15 174 57 230
85 39 19 73 34 78 33 4 -1 7 1 7 6 0 4 17 16 38 27 20 11 63 36 95 57 32 21
62 38 67 38 5 0 10 3 12 8 2 4 21 19 43 34 179 122 378 324 453 459 31 56 56
104 57 109 3 9 22 53 58 133 20 42 35 77 34 78 -1 0 -47 3 -102 5 -93 4 -163
9 -175 14 -3 1 -8 2 -13 1 -35 -6 -411 101 -423 120 -3 5 -12 9 -20 9 -15 0
-255 117 -264 129 -3 3 -18 13 -35 21 -16 8 -32 18 -35 21 -3 3 -27 20 -55 39
-45 31 -111 79 -141 105 -107 90 -165 150 -269 276 -24 29 -133 193 -159 240
-31 56 -96 190 -122 254 -14 33 -29 69 -34 80 -5 11 -19 49 -30 85 -12 36 -25
72 -28 80 -3 8 -6 20 -7 25 -2 6 -10 35 -19 66 -9 31 -19 66 -21 78 -7 32 -13
52 -24 89 -5 18 -10 35 -10 37 -1 3 -1 6 -2 8 0 1 -2 11 -3 22 -3 21 -15 92
-23 135 -2 14 -7 79 -9 145 -3 66 -6 123 -7 127 -1 3 -48 -17 -104 -47z"/>
</g>
</svg>
