<svg xmlns="http://www.w3.org/2000/svg" xmlns:xlink="http://www.w3.org/1999/xlink" width="85.9" height="90.6" viewBox="0 0 22.7 24"><defs><pattern patternTransform="matrix(.8 0 0 .725 0 944.7)" id="d" xlink:href="#a"/><pattern patternUnits="userSpaceOnUse" width="10" height="10" patternTransform="scale(10)" id="a"><circle cx="2.6" cy=".8" r=".5"/><circle cx="3" cy="2.3" r=".5"/><circle cx="4.4" cy="2.4" r=".5"/><circle cx="1.8" cy="3" r=".5"/><circle cx="6.1" cy="1.4" r=".5"/><circle cx="5.8" cy="4.4" r=".5"/><circle cx="4.3" cy="4" r=".5"/><circle cx="5.5" cy="3" r=".5"/><circle cx="4.8" cy="5.5" r=".5"/><circle cx="2.7" cy="5.2" r=".5"/><circle cx="8" cy="1.4" r=".5"/><circle cx="7" cy="5" r=".5"/><circle cx="4.3" cy=".9" r=".5"/><circle cx="7.1" cy=".3" r=".5"/><circle cx="9.6" cy="1" r=".5"/><circle cx="7" cy="2.7" r=".5"/><circle cx="8.9" cy="2.7" r=".5"/><circle cx="9.3" cy="4.4" r=".5"/><circle cx="7.8" cy="3.9" r=".5"/><circle cx="8.3" cy="5.9" r=".5"/><circle cx="8" cy="7.4" r=".5"/><circle cx="9.3" cy="8.1" r=".5"/><circle cx="8.2" cy="9.3" r=".5"/><circle cx="9.7" cy="9.5" r=".5"/><circle cx="9.7" cy="6.2" r=".5"/><circle cx="3.4" cy="6.3" r=".5"/><circle cx="2.9" cy="8.2" r=".5"/><circle cx="4.6" cy="8.7" r=".5"/><circle cx="3.2" cy="9.7" r=".5"/><circle cx="5.7" cy="7.3" r=".5"/><circle cx="6.7" cy="6.5" r=".5"/><circle cx="5.7" cy="9.7" r=".5"/><circle cx="6.5" cy="8.4" r=".5"/><circle cx="4.4" cy="7.2" r=".5"/><circle cx=".6" cy="7.3" r=".5"/><circle cx=".8" cy="5.7" r=".5"/><circle cx="1.3" cy="8.5" r=".5"/><circle cx="2" cy="6.9" r=".5"/><circle cx=".4" cy="3.2" r=".5"/><circle cx="1.2" cy="1.7" r=".5"/><circle cx="1.2" cy=".1" r=".5"/><circle cx="1.2" cy="10.1" r=".5"/><circle cx="1.3" cy="4.5" r=".5"/><circle cx="3" cy="3.8" r=".5"/></pattern><pattern patternTransform="matrix(-.06187 .10055 -.35763 -.22006 2.8 947.5)" id="c" xlink:href="#b"/><pattern patternUnits="userSpaceOnUse" width="30.1" height="5.2" id="b"><path d="M7.6 0C5.1-.1 2.6.4 0 1.9V3c2.8-1.7 5.2-2 7.5-1.8 2.3.2 4.5 1 6.8 2C18.8 4.8 23.8 6.6 30 3V1.8c-6.5 3.7-10.9 2-15.4.3-2.3-.9-4.6-1.8-7.1-2z"/></pattern></defs><path d="M31.5 966.2c3.3 2 10.7 14.3 7.6 25.4-2.4 8.6-9.2 15-9.2 15 3.8 5.7 6.9 11.4 4.5 17.1l7.6 1.3c12-1.7 22.4-4.6 30.4-9.3 4.5-2.7 7.2-6 7.7-10.7.5-2.3-2-3.5-3.1-4.9l-9.3-6.7c-6-9.2-12.2-13.5-18.3-19.7-5.8-5.2-11.8-6.1-17.9-7.5z" fill="url(#c)" fill-rule="evenodd" stroke="#00f" stroke-width=".4" transform="matrix(.15858 -.16304 .15876 .16286 -156.3 -141.8)"/><path d="M7.3 982.2c2.3-3.5 3.1-5 5.8-8.2a31.2 31.2 0 0 1 18.7-7.6c6.1-5 9.7-9.8 27.7-9.8a38.4 38.4 0 0 0 3 20.7c3 5.3 9.2 7.7 12 13.6-2.1.6-4.5 1.4-5.6 3 4.7 5.1 5.5 3.2 7.3 3.3 2.1-.6 3.5-3.8 4.6-5.6 3.8-6.8 6.8-9.4 11.4-11.4 3.5-1.5 9.2-2.5 13-1.2 0 0-10.1 11-9 23.6 1 10.8 6.8 17 8.3 18.9-4.5 2-12.6 1-17.8-.9-2.9-1-8.2-4.7-10.7-7.6-1.4 1.1-1.2 1.3-4.6 3 1.3.7 3.1 1.9 3.4 2.8 1.7 2.8-14.9 12.1-20.6 14.4-2.5 1-5.8-1-6.6-2.2-1.3-1.9-3-3.6-5-5.7-3.4-.3-4.3.2-7.7-1.3a19 19 0 0 1-4.8 8.3c-3.5-2.4-5.7-3.6-8-6.4-1.4 3.3-5.4 4-7.5 4.1-2.7-5.8-5.3-13.8-.6-19.2-4.4-5.4-7.3-8.6-8.7-15-1-.4-3.6-.2-3.8-3.4.6-2 1.2-2.4 3-4-.9-1-1.2-1-.7-2.7 1.1-2.3 2.2-1.5 3.5-3.5z" fill="#fff" fill-rule="evenodd" stroke="red" stroke-width=".4" transform="matrix(.15858 -.16304 .15876 .16286 -156.3 -141.8)"/><g fill="url(#d)" fill-rule="evenodd" stroke-width=".4" transform="matrix(.15858 -.16304 .15876 .16286 -156.3 -141.8)"><path d="M73.4 997.2l4.7-.6s6.1-12.2 11.7-15.5c4.5-2.7 15.8-2.5 15.8-2.5s-9.5 10.8-10 21.8c-.4 12 9.2 21 9.2 21s-8.8 1.1-13 .3a36 36 0 0 1-15.8-8.5s4.8-3.6 4.6-8.3c-.1-5-7.2-7.7-7.2-7.7z" stroke="#f0f"/><path d="M42.9 1025.6l5.5 7c2 1.6 4 2 6.4.5a56 56 0 0 0 19.8-13c1.1-.9.3-1.4-.2-2l-3.3-2a49 49 0 0 1-11.7 5.3zM32.8 966s6.4-5.8 10.3-7.4c5.2-2 16.6-2.1 16.6-2.1s-1.6 13.4 1.7 19.6c2.8 5.4 14.6 14 13.1 14.5-4.1.7-4.6 2.2-5.9 3.5 0 0-8-9.6-12.2-14.4A55.6 55.6 0 0 0 32.8 966z" stroke="#0f0"/><path d="M14.1 1010.4s-3.1 5.3-3.1 8.7c0 3.7 3.4 11.3 3.4 11.3s7.2-1 7.3-4.4c-1.5-4.1-2.4-12-2.4-12-1.7-.9-3.5-1.2-5.2-3.6z" stroke="#0ff"/><path d="M19.3 1013.6s.8 8.9 3 12.5c1.9 2.9 7.8 6.6 7.8 6.6.8.2 6-8.8 5-14.2-.7-4-5.2-11.8-5.2-11.8-3.6 3-7.3 6.8-10.6 7z" stroke="#f60"/></g><path d="M14.7 4c-.3.4-.2.8-.1 1.2 0 .4.2.8 0 1.3 0 .4.2.9.4 1.2l.3.5v.3c.6 0 .4-.2.2-.4 0-.2-.3-.3-.4-.5a2 2 0 0 1-.3-1.1V5.2c-.2-.5-.2-.7-.1-1.2zM16 5.7c-.2 0 0 .5 0 .8v1c-.2.2-.1.3-.1.5l-.3.5.3.2c.2-.3.1-.5.1-.7v-.5c.2-.4.2-.7.1-1l-.1-.8zm.3 2.7l-.3.3.2.2.2-.4c0-.2.2-.2.5-.4s.8-.3 1-.9c-.4.6-.7.7-1.1.9-.2 0-.4.1-.5.3zm0 .6v.2L17 9l.7-.2c.3-.2 1 0 1.1-.3-.2.2-.7 0-1.1.1-.3 0-.5.2-.8.3l-.7.2zm.1.4v.2h1.3l1-.1h-1l-.6-.1h-.7zm-8.2 8.4v.4c.6 0 1.1.2 1.7.5.5.2 1 .9 1.2 1.3l.4 1c-.2-.7-.4-1.4-.8-1.9-.4-.4-.9-.8-1.4-1l-1-.3zm0 1L8 19c.5 0 .9 0 1.2.2l.7.7.4.3-.5-.6c-.2-.2-.3-.5-.6-.6l-1.1-.4zm-.3.7l1 1c.5.2.5.3 1 .3.3 0 .7 0 .9-.2-.6 0-1.2 0-1.7-.2l-1-1.1-.2.2zm-1.1 1.1a8.2 8.2 0 0 0 .6 1c.3.4.7.6 1 .7l.6.3.2.3c.1-.2 0-.4-.2-.5a2 2 0 0 0-.4-.2l-1-.7-.3-.6.1-.5zM4.2 6.4c-.3.4-.6.9-.6 1.2l-.2 1v.8l.5-.1-.2-.6v-1l.6-1.1.6-.7-.7.5zm1 .6a2 2 0 0 0-.4.7c0 .2-.1.5 0 .8v.4H5V7.8c0-.2 0-.5.3-.7l.4-.7-.6.6zm1.2.8l-.2.5v.3h.4v-.8l.3-.7c-.3.2-.5.5-.5.7zm1.3.6l-.1.2H8v-.9c-.2.2-.2.4-.3.7zM9 8.2v.3h.3l-.1-.2.1-.4c-.2 0-.2 0-.3.3zm1.2 0v.4h.2v-.3l.1-.4c-.2 0-.3.2-.3.4zm1.1 0v.4h.4s-.2-.1-.2-.3l.3-.5c-.3.1-.4.3-.5.5zM16 13l-.1.4h.6l.6-.6-.7.4c-.1 0-.3 0-.5-.2zm-.5 1.3v.3h.5c.2 0 .4 0 .7-.3l-.7.2c-.2 0-.3 0-.5-.2zm-.6 1.4l-.1.2.7.2c.3 0 .6-.1.8-.3l-.8.1-.6-.2zm-1 1.5v.3l.8.1c.4 0 .7 0 1-.2h-1l-.8-.2z" style="line-height:normal;text-indent:0;text-align:start;text-decoration-line:none;text-decoration-style:solid;text-decoration-color:#000;text-transform:none;isolation:auto;mix-blend-mode:normal" color="#000" font-weight="400" font-family="sans-serif" white-space="normal" overflow="visible" fill-rule="evenodd"/><path d="M22.9 988s.2-4.4 1.5-5.6c1.3-1.4 3.3-1.4 5.1-.7 1.9.8 3.2 2.8 3.6 4.8.3 1.3-.5 3.1-1.5 4.1-1 1-3.7 1-3.7 1s-1.1-2-2-2.7c-.9-.6-3-1-3-1z" fill="none" stroke="red" stroke-width=".4" transform="matrix(.15858 -.16304 .15876 .16286 -156.3 -141.8)"/><path d="M13.8 1010.5c-3.3-4.5-7.3-8.4-8.4-14.8-1.2.6-2.4-.2-3.7-1.6-1-2.8.8-4 2.3-5.6-.8-3-.3-5.1 2.5-6 0 0 5.6-9 9.9-11.9a50 50 0 0 1 15.6-4.4 35 35 0 0 1 8 21.2c-.4 7.6-5 13.6-10 19.3-2.9 3.3-10.9 7.2-10.9 7.2-1.8 0-3.6-1.5-5.4-3.4z" fill="none" stroke="#f0f" stroke-width=".4" transform="matrix(.15858 -.16304 .15876 .16286 -156.3 -141.8)"/><path d="M5.3 8.9v.2c.2 0 .7.1 1 .4l.2.4v.4l-.4.3-1 .6.1.2c.7-.4 1-.6 1.9-.8.4-.2 1 0 1.3.3l.2.3v.4l-.7.7-1 .4.1.2a7 7 0 0 1 1.4-.5c.4-.1 1 0 1.3.3l.2.3v.4c-.2.4-.7.7-1.5 1l-.6.2.1.3a6.3 6.3 0 0 1 1.2-.5c.4 0 1 0 1.3.4l.2.3v.4c-.2.3-.7.6-1.4 1l-1 .5v.2l1.6-.7c.4 0 1 0 1.3.4l.2.3v.4l-.7.5.2.3.7-.7v-.8l.5-.1c.3 0 .6 0 .8.2l.3.4v.5h.2v-.6l-.4-.5c-.2-.2-.5-.3-.9-.3l.6-.5c.4-.2.7-.4 1.2-.1l.4.4.2-.1a1.1 1.1 0 0 0-1-.7l.3-.5v-.5c.4-.3.8-.5 1.3-.3l.3.3.2-.2a1 1 0 0 0-.4-.3l-.7-.1c.2-.2.3-.4.3-.8v-.4c.3-.4.6-.7 1.1-.6.1 0 .2 0 .3.2l.2-.2a1 1 0 0 0-.4-.2h-.6l.2-.8-.2-.5.4-.4c.2-.2.4-.4.7-.4v-.3l-.4.2v-.5a1 1 0 0 0-.3-.6 1 1 0 0 0-.4-.3v.3s.2 0 .3.2l.1.4v.7l-.6.5a1 1 0 0 0-.3-.2h-.5l.2-.4a1 1 0 0 0 0-.7l-.2-.5-.2.2.2.4v.5c0 .3-.2.4-.4.5l-.5.2a1 1 0 0 0-.7-.3l.1-.2c.2-.2.2-.4.2-.6l-.1-.5h-.2v.9a1 1 0 0 1-.5.4l-.5.1c-.3-.3-.6-.5-.9-.5l.3-.4c.2-.2.2-.4.2-.6h-.2c0 .2 0 .3-.2.5a1 1 0 0 1-.5.4l-1 .2v-.2a2 2 0 0 0-1.3-1V9c.3 0 .8.3 1 .8l.2.3c0 .2 0 .3-.2.4l-.6.3c-.4-.4-1-.5-1.5-.4l-.4.1c.2-.2.2-.4.1-.6l-.2-.4c-.4-.4-.8-.5-1.2-.5zM9.5 10l.8-.1c.5 0 .9 0 1.2.4l.1.4v.5c-.3.3-.5.4-.9.5l-.1-.5c-.4-.5-1-.6-1.4-.6.2-.1.3-.4.3-.6zm-.8 1l.4-.1c.5 0 1 0 1.3.4v.9a1 1 0 0 1-.5.4c-.4-.4-1-.6-1.4-.5l.2-.4c.2-.2.2-.4.1-.6V11zm3-.6h.6c.4-.1.8 0 1 .3.2.1.2.3.3.4l-.1.5a1 1 0 0 1-.4.5h-.3c-.3-.4-.9-.5-1.3-.5l.2-.3c.2-.2.2-.4.2-.6l-.1-.3zm-1 1.6l.8-.1c.4 0 .8 0 1.1.4l.2.4-.1.5-.5.4-.4.1-.1-.6c-.4-.5-.8-.6-1.3-.5l.2-.2.1-.4zm-.6.8h.2c.5 0 .9 0 1.2.4l.1.4v.5l-.7.5h-.2c-.3-.3-.8-.5-1.2-.5.2-.1.5-.3.6-.6v-.7zm3.5-2.1c.4-.3.7-.4 1.1-.2.1 0 .3 0 .4.2l.1.4c0 .4 0 .6-.2.8l-.5.5a1 1 0 0 0-.3-.3c-.2-.1-.5-.2-.7-.1l.2-.3a1 1 0 0 0 0-.6v-.4zm-.6 1.7l.2-.1c.3-.1.5-.2.9 0l.3.3v.5c0 .3 0 .5-.2.7l-.6.4a1 1 0 0 0-.2-.3c-.3-.2-.5-.3-.8-.3l.3-.3.1-.6v-.3zm-2.2 2.5l.8-.1c.2 0 .4 0 .6.4l.1.3v.5l-.7.6h-.3c-.4-.2-.8-.4-1.1-.4.2-.2.5-.3.6-.6V15zm1-1h.3c.4-.1.7-.1 1.1.2l.2.4c.1.1.1.3 0 .4 0 .3-.2.5-.3.6l-.6.3V15l-.9-.5h-.1l.2-.3.1-.2z" style="line-height:normal;text-indent:0;text-align:start;text-decoration-line:none;text-decoration-style:solid;text-decoration-color:#000;text-transform:none;isolation:auto;mix-blend-mode:normal" color="#000" font-weight="400" font-family="sans-serif" white-space="normal" overflow="visible" fill-rule="evenodd"/><path d="M4.7 4.2a9.6 9.6 0 0 0-2.4 3.5C2 8.7 2 9.4 2 10.2c-.5.4-1 1.1-1.3 2a5 5 0 0 0-.7 2.6c0 1 .2 1.3.4 2.3v1.1c.2.3.4.5.6.5v.2c0 .3 0 .6.2.8.2.3.6.5 1 .4l.2-.2c1.2.7 2.2.7 3.6.8.1.8.5 1.6 1.1 2 .7.6 1.4 1 2.1 1.2h.4l.5-1c.2-.2.2-.6.2-.9.6 0 1.2 0 2-.2h.2v-.4a6 6 0 0 0-.6-2.2 4 4 0 0 0 1.3-.7l1.5.2.9-.1c.3-.2.7-.4.8-.8a20.5 20.5 0 0 0 1.2-5v-.6c-.1-.2-.2-.4-.5-.5l-.6.1.2-.7a7 7 0 0 0 2.7-.5c1.2-.6 2.6-1.6 3-2.9l.2-.4h-.4c-.5 0-2.3-.2-4-1.7-2-1.8-2.3-5-2.3-5V0l-.4.2c-1 .5-1.7 1.6-2 2.5-.5 1.1-.5 2.2 0 4l.2.8c.1.2.2.4.1.5l-.3.3c0 .1-.6.3-1 .3l.3-1 .2-.3c-.8-.3-1.6-.2-2.4-.2a6 6 0 0 1-2 0 8.2 8.2 0 0 1-3.5-2.8L5 4zm.2.5a9.5 9.5 0 0 0 3.7 2.8c.7.2 1.5.1 2.2 0 .5 0 1 0 1.6.2l-.2.2v.7l-2-.2c-2 0-4.3-.1-6.2.7l-1.6.8c0-.8.1-1.3.3-2 .3-.8 1-2 2.2-3.2zm-2.7 6c.7-.1 1.6.2 2.1.4a6 6 0 0 1 3 2.5 9.3 9.3 0 0 1 .4 6.4l-.5.2h-.9c-1.5-.1-2.4-.2-3.6-1h-.3l-.3.2s-.3.2-.4 0l-.2-.3c0-.1-.1-.2 0-.4h.4c.3.1.6.1.8 0a3 3 0 0 0 1.2-.6c.5-.4.7-1 .5-1.5 0 0-.3.8-.7 1l-1.1.7H2l-.5-.1H1v-1.3l-.4-2.2c0-.5.2-1.6.5-2.4l1.1-1.7zm.5-.4c.3-.3 1-.6 1.5-.8C6 8.8 8 9 10.1 9l2.2.2 1.1-.2 1.5-.3.7.1c.2 0 .3.2.4.4.2.4.3 1 .3 1.4L16 12l-1.2 2.9a17 17 0 0 1-1.9 3.1c-.5.6-.6.6-1.3 1-.7-1-1.8-1.6-3.3-1.8 0-1.2-.2-2.5-.8-3.7-.7-1.3-2-2.1-3.1-2.6-.6-.3-1.3-.4-1.8-.5zm.3 2.3l-.4.6c-.1.2-.2.5.1.6.3 0 .3 0 .4-.2l.3-.7.3-.3.3-.1c.9 0 .8 0 1.1-.4H3.3l-.3.5zM15.6.9c.1 1 .5 3.7 2.2 5.2 1.6 1.3 3.5 1.5 4.4 1.6-.5.8-2 2-2.9 2.5a7 7 0 0 1-2.5.2l-.2-.5c0-.4-.1-.6-.3-.9l-.6-.6-.8-.1h-.7c.2-.1.3-.3.3-.4v-.6l-.4-.8c-.4-1.7-.6-2.5-.2-3.6.4-.7 1-1.7 1.7-2zM3.5 13.6c-.2.3-.2.6-.1 1 0 .4.3.6.5.9-.2.2-.3.3-.3.7.3 0 .5-.4.6-.6.2-.1.3-.3.5-.3l1 .1.8-.1s-.5 0-.7-.2c.2-.3.4-.7.3-1 0-.3-.4-.6-.7-.8a2 2 0 0 0-1-.3c-.5.1-.7.3-1 .6zm1-.2c.2 0 .5 0 .7.2.3.2.5.4.5.7 0 .3 0 .4-.2.6h-.7l-.6.3-.5-.7a.8.8 0 0 1 .1-.7l.6-.4zm4 4.1c1.2.3 2.3 1 3 2 .2.4.5 1 .6 1.8-.7.2-1.4.2-2 0-.9 0-1.7-.7-2.1-1.2l.1-.5a10.2 10.2 0 0 0 .3-2zm-1.9 3.2h.6l.5-.3c.7.7 1.4 1.3 2 1.5.2.3.2.6 0 .9l-.3.6a8 8 0 0 1-1.8-1.1c-.5-.5-.9-1-1-1.6zm9.8-8.2l.2-.4h.6l.1.6c0 .4 0 1-.2 1.7a16 16 0 0 1-1 3.2l-.6.5h-1.9c.7-1 1.3-2.2 1.8-3.2l1-2.4z" style="line-height:normal;text-indent:0;text-align:start;text-decoration-line:none;text-decoration-style:solid;text-decoration-color:#000;text-transform:none;isolation:auto;mix-blend-mode:normal" color="#000" font-weight="400" font-family="sans-serif" white-space="normal" overflow="visible" fill-rule="evenodd"/><path d="M5.1 13.8c.2.2.3.5.1.8-.2.2-.5.3-.8.2a.6.6 0 0 1-.3-.7c0-.3.3-.5.6-.5.3.2.1.4 0 .6.4 0 .4-.2.4-.4z" style="marker:none" color="#000" overflow="visible" fill-rule="evenodd"/></svg>