<?xml version="1.0" encoding="UTF-8" standalone="no"?>
<svg
   xmlns:dc="http://purl.org/dc/elements/1.1/"
   xmlns:cc="http://creativecommons.org/ns#"
   xmlns:rdf="http://www.w3.org/1999/02/22-rdf-syntax-ns#"
   xmlns:svg="http://www.w3.org/2000/svg"
   xmlns="http://www.w3.org/2000/svg"
   xmlns:xlink="http://www.w3.org/1999/xlink"
   xmlns:sodipodi="http://sodipodi.sourceforge.net/DTD/sodipodi-0.dtd"
   xmlns:inkscape="http://www.inkscape.org/namespaces/inkscape"
   width="450"
   height="220"
   viewBox="0 0 119.06247 58.208315"
   id="svg8"
   overflow="hidden"
   version="1.1"
   sodipodi:docname="logo.svg"
   style="overflow:hidden"
   inkscape:version="0.92.2 (5c3e80d, 2017-08-06)">
  <metadata
     id="metadata98">
    <rdf:RDF>
      <cc:Work
         rdf:about="">
        <dc:format>image/svg+xml</dc:format>
        <dc:type
           rdf:resource="http://purl.org/dc/dcmitype/StillImage" />
        <dc:title></dc:title>
      </cc:Work>
    </rdf:RDF>
  </metadata>
  <sodipodi:namedview
     pagecolor="#ffffff"
     bordercolor="#666666"
     borderopacity="1"
     objecttolerance="10"
     gridtolerance="10"
     guidetolerance="10"
     inkscape:pageopacity="0"
     inkscape:pageshadow="2"
     inkscape:window-width="3200"
     inkscape:window-height="1644"
     id="namedview96"
     showgrid="false"
     inkscape:zoom="2.3786081"
     inkscape:cx="119.0328"
     inkscape:cy="44.019628"
     inkscape:window-x="-16"
     inkscape:window-y="-16"
     inkscape:window-maximized="1"
     inkscape:current-layer="svg8" />
  <defs
     id="defs2">
    <pattern
       xlink:href="#Polkadots-large"
       id="pattern5985"
       overflow="hidden"
       patternTransform="matrix(0.8 0 0 0.725 0 944.695)" />
    <pattern
       width="10"
       height="10"
       patternUnits="userSpaceOnUse"
       id="Polkadots-large"
       overflow="hidden"
       patternTransform="scale(10 10)">
      <circle
         cx="2.567"
         cy="0.81"
         r="0.45"
         id="circle5618"
         stroke="none"
         fill="#000000" />
      <circle
         cx="3.048"
         cy="2.33"
         r="0.45"
         id="circle5620"
         stroke="none"
         fill="#000000" />
      <circle
         cx="4.418"
         cy="2.415"
         r="0.45"
         id="circle5622"
         stroke="none"
         fill="#000000" />
      <circle
         cx="1.844"
         cy="3.029"
         r="0.45"
         id="circle5624"
         stroke="none"
         fill="#000000" />
      <circle
         cx="6.08"
         cy="1.363"
         r="0.45"
         id="circle5626"
         stroke="none"
         fill="#000000" />
      <circle
         cx="5.819"
         cy="4.413"
         r="0.45"
         id="circle5628"
         stroke="none"
         fill="#000000" />
      <circle
         cx="4.305"
         cy="4.048"
         r="0.45"
         id="circle5630"
         stroke="none"
         fill="#000000" />
      <circle
         cx="5.541"
         cy="3.045"
         r="0.45"
         id="circle5632"
         stroke="none"
         fill="#000000" />
      <circle
         cx="4.785"
         cy="5.527"
         r="0.45"
         id="circle5634"
         stroke="none"
         fill="#000000" />
      <circle
         cx="2.667"
         cy="5.184"
         r="0.45"
         id="circle5636"
         stroke="none"
         fill="#000000" />
      <circle
         cx="7.965"
         cy="1.448"
         r="0.45"
         id="circle5638"
         stroke="none"
         fill="#000000" />
      <circle
         cx="7.047"
         cy="5.049"
         r="0.45"
         id="circle5640"
         stroke="none"
         fill="#000000" />
      <circle
         cx="4.34"
         cy="0.895"
         r="0.45"
         id="circle5642"
         stroke="none"
         fill="#000000" />
      <circle
         cx="7.125"
         cy="0.34"
         r="0.45"
         id="circle5644"
         stroke="none"
         fill="#000000" />
      <circle
         cx="9.553"
         cy="1.049"
         r="0.45"
         id="circle5646"
         stroke="none"
         fill="#000000" />
      <circle
         cx="7.006"
         cy="2.689"
         r="0.45"
         id="circle5648"
         stroke="none"
         fill="#000000" />
      <circle
         cx="8.909"
         cy="2.689"
         r="0.45"
         id="circle5650"
         stroke="none"
         fill="#000000" />
      <circle
         cx="9.315"
         cy="4.407"
         r="0.45"
         id="circle5652"
         stroke="none"
         fill="#000000" />
      <circle
         cx="7.82"
         cy="3.87"
         r="0.45"
         id="circle5654"
         stroke="none"
         fill="#000000" />
      <circle
         cx="8.27"
         cy="5.948"
         r="0.45"
         id="circle5656"
         stroke="none"
         fill="#000000" />
      <circle
         cx="7.973"
         cy="7.428"
         r="0.45"
         id="circle5658"
         stroke="none"
         fill="#000000" />
      <circle
         cx="9.342"
         cy="8.072"
         r="0.45"
         id="circle5660"
         stroke="none"
         fill="#000000" />
      <circle
         cx="8.206"
         cy="9.315"
         r="0.45"
         id="circle5662"
         stroke="none"
         fill="#000000" />
      <circle
         cx="9.682"
         cy="9.475"
         r="0.45"
         id="circle5664"
         stroke="none"
         fill="#000000" />
      <circle
         cx="9.688"
         cy="6.186"
         r="0.45"
         id="circle5666"
         stroke="none"
         fill="#000000" />
      <circle
         cx="3.379"
         cy="6.296"
         r="0.45"
         id="circle5668"
         stroke="none"
         fill="#000000" />
      <circle
         cx="2.871"
         cy="8.204"
         r="0.45"
         id="circle5670"
         stroke="none"
         fill="#000000" />
      <circle
         cx="4.59"
         cy="8.719"
         r="0.45"
         id="circle5672"
         stroke="none"
         fill="#000000" />
      <circle
         cx="3.181"
         cy="9.671"
         r="0.45"
         id="circle5674"
         stroke="none"
         fill="#000000" />
      <circle
         cx="5.734"
         cy="7.315"
         r="0.45"
         id="circle5676"
         stroke="none"
         fill="#000000" />
      <circle
         cx="6.707"
         cy="6.513"
         r="0.45"
         id="circle5678"
         stroke="none"
         fill="#000000" />
      <circle
         cx="5.73"
         cy="9.67"
         r="0.45"
         id="circle5680"
         stroke="none"
         fill="#000000" />
      <circle
         cx="6.535"
         cy="8.373"
         r="0.45"
         id="circle5682"
         stroke="none"
         fill="#000000" />
      <circle
         cx="4.37"
         cy="7.154"
         r="0.45"
         id="circle5684"
         stroke="none"
         fill="#000000" />
      <circle
         cx="0.622"
         cy="7.25"
         r="0.45"
         id="circle5686"
         stroke="none"
         fill="#000000" />
      <circle
         cx="0.831"
         cy="5.679"
         r="0.45"
         id="circle5688"
         stroke="none"
         fill="#000000" />
      <circle
         cx="1.257"
         cy="8.519"
         r="0.45"
         id="circle5690"
         stroke="none"
         fill="#000000" />
      <circle
         cx="1.989"
         cy="6.877"
         r="0.45"
         id="circle5692"
         stroke="none"
         fill="#000000" />
      <circle
         cx="0.374"
         cy="3.181"
         r="0.45"
         id="circle5694"
         stroke="none"
         fill="#000000" />
      <circle
         cx="1.166"
         cy="1.664"
         r="0.45"
         id="circle5696"
         stroke="none"
         fill="#000000" />
      <circle
         cx="1.151"
         cy="0.093"
         r="0.45"
         id="circle5698"
         stroke="none"
         fill="#000000" />
      <circle
         cx="1.151"
         cy="10.093"
         r="0.45"
         id="circle5700"
         stroke="none"
         fill="#000000" />
      <circle
         cx="1.302"
         cy="4.451"
         r="0.45"
         id="circle5702"
         stroke="none"
         fill="#000000" />
      <circle
         cx="3.047"
         cy="3.763"
         r="0.45"
         id="circle5704"
         stroke="none"
         fill="#000000" />
    </pattern>
    <pattern
       xlink:href="#Wavy"
       id="pattern5886"
       overflow="hidden"
       patternTransform="matrix(-0.0618689 0.100547 -0.35763 -0.220057 2.82843 947.523)" />
    <pattern
       width="30.066"
       height="5.18058"
       patternUnits="userSpaceOnUse"
       id="Wavy"
       overflow="hidden">
      <path
         d="M7.597 0.061C5.079-0.187 2.656 0.302-0.01 1.788L-0.01 3.061C2.773 1.431 5.173 1.052 7.472 1.28 9.77 1.508 11.969 2.361 14.253 3.218 18.82 4.931 23.804 6.676 30.066 3.061L30.062 1.788C23.622 5.497 19.246 3.77 14.691 2.061 12.413 1.207 10.115 0.311 7.597 0.061Z"
         id="path5796"
         stroke="none"
         fill="#000000" />
    </pattern>
  </defs>
  <g
     id="layer4"
     transform="translate(-7.3717335,-22.785588)">
    <rect
       x="8.7312498"
       y="23.8305"
       width="116.946"
       height="55.801601"
       id="rect16201"
       style="fill:#000080;fill-opacity:1;fill-rule:evenodd;stroke-width:0.296817" />
  </g>
  <g
     id="layer5"
     transform="translate(-7.3717335,-22.785588)">
    <rect
       x="11.0759"
       y="25.6436"
       width="112.257"
       height="52.175301"
       id="rect16201-1"
       style="fill:#ffffff;fill-opacity:1;fill-rule:evenodd;stroke-width:0.28119701" />
  </g>
  <g
     id="layer1"
     display="inline"
     style="display:inline"
     transform="translate(-7.3717335,-22.785588)">
    <g
       id="g6283"
       transform="matrix(2.32083,0,0,2.32083,-47.0935,-85.8327)">
      <g
         id="layer1-7"
         transform="matrix(0.118063,-0.119983,0.118196,0.119848,-62.4515,-53.2623)">
        <path
           d="m 31.5,966.237 c 3.3199,1.897 10.7069,14.245 7.625,25.375 -2.3908,8.638 -9.25,14.998 -9.25,14.998 3.8727,5.71 6.8814,11.42 4.5,17.13 l 7.625,1.25 c 12.0115,-1.67 22.3608,-4.59 30.375,-9.25 4.508,-2.73 7.2258,-6.04 7.75,-10.75 0.4682,-2.29 -2.0092,-3.54 -3.125,-4.88 l -9.25,-6.748 c -6.125,-9.14 -12.25,-13.494 -18.375,-19.625 -5.7337,-5.196 -11.8191,-6.17 -17.875,-7.5 z"
           id="path4414"
           stroke-miterlimit="4"
           inkscape:connector-curvature="0"
           style="fill:url(#pattern5886);fill-opacity:1;fill-rule:evenodd;stroke:#0000ff;stroke-width:0.35433099;stroke-linecap:butt;stroke-linejoin:miter;stroke-miterlimit:4;stroke-dasharray:none;stroke-opacity:1" />
        <path
           d="m 7.2833,982.233 c 2.30332,-3.498 3.1247,-5.012 5.8215,-8.184 3.6842,-4.333 14.2171,-7.791 18.7161,-7.615 6.091,-5.081 9.6699,-9.837 27.7109,-9.818 -1.1956,8.373 1.1863,17.246 3.0516,20.643 2.9397,5.355 9.1069,7.743 11.8498,13.634 -2.0326,0.651 -4.4374,1.437 -5.5267,3.026 4.7239,5.083 5.4461,3.19 7.3001,3.236 2.1417,-0.522 3.5121,-3.77 4.5464,-5.592 3.8244,-6.74 6.8461,-9.386 11.4732,-11.408 3.4366,-1.501 9.1648,-2.49 13.0478,-1.122 0,0 -10.2014,11.005 -9.1046,23.547 0.9435,10.79 6.8116,17.03 8.3666,18.87 -4.5717,2.1 -12.598,0.99 -17.8644,-0.81 -2.8457,-0.97 -8.1798,-4.76 -10.6854,-7.66 -1.4338,1.12 -1.165,1.37 -4.6102,3.11 1.2813,0.61 3.1694,1.77 3.4627,2.72 1.669,2.81 -14.8922,12.13 -20.6733,14.38 -2.4185,1.01 -5.8079,-0.91 -6.5951,-2.15 -1.2244,-1.93 -3.0644,-3.62 -5.0649,-5.76 -3.306,-0.26 -4.1641,0.19 -7.5644,-1.26 -0.6391,2.65 -2.0916,5.24 -4.8675,8.31 -3.514,-2.44 -5.6375,-3.62 -7.9103,-6.42 -1.4782,3.34 -5.4525,4.05 -7.5518,4.09 -2.6644,-5.81 -5.32154,-13.75 -0.5822,-19.2 -4.43219,-5.38 -7.29997,-8.59 -8.75653,-15.005 -0.9916,-0.408 -3.54609,-0.236 -3.74868,-3.422 0.52735,-1.925 1.14102,-2.375 2.90605,-3.879 -0.80761,-1.09 -1.10706,-1.181 -0.6214,-2.814 1.12291,-2.303 2.20591,-1.52 3.47466,-3.447 z"
           id="path4188-6-9"
           stroke-miterlimit="4"
           inkscape:connector-curvature="0"
           style="fill:#ffffff;fill-rule:evenodd;stroke:#ff0000;stroke-width:0.35433099;stroke-linecap:butt;stroke-linejoin:miter;stroke-miterlimit:4;stroke-dasharray:none;stroke-opacity:1" />
        <g
           id="g5933"
           style="fill:url(#pattern5985);fill-opacity:1">
          <path
             d="m 73.375,997.237 4.75,-0.625 c 0,0 6.0914,-12.17 11.625,-15.5 4.5898,-2.762 15.875,-2.5 15.875,-2.5 0,0 -9.5726,10.776 -10,21.748 -0.4676,12.01 9.125,21 9.125,21 0,0 -8.7413,1.19 -13,0.38 -8.5545,-1.63 -15.75,-8.5 -15.75,-8.5 0,0 4.7738,-3.69 4.625,-8.38 -0.1553,-4.893 -7.25,-7.623 -7.25,-7.623 z"
             id="path4416"
             stroke-miterlimit="4"
             inkscape:connector-curvature="0"
             style="fill:url(#pattern5985);fill-opacity:1;fill-rule:evenodd;stroke:#ff00ff;stroke-width:0.35433099;stroke-linecap:butt;stroke-linejoin:miter;stroke-miterlimit:4;stroke-dasharray:none;stroke-opacity:1" />
          <path
             d="m 42.875,1025.61 5.5,7 c 1.9694,1.57 4.0725,1.93 6.375,0.5 9.078,-3.36 16.855,-9.7 19.875,-13 1.0979,-0.9 0.2333,-1.41 -0.25,-2 l -3.25,-2 c -3.3461,2.04 -7.0761,3.88 -11.75,5.25 z"
             id="path4418"
             stroke-miterlimit="4"
             inkscape:connector-curvature="0"
             style="fill:url(#pattern5985);fill-opacity:1;fill-rule:evenodd;stroke:#00ff00;stroke-width:0.35433099;stroke-linecap:butt;stroke-linejoin:miter;stroke-miterlimit:4;stroke-dasharray:none;stroke-opacity:1" />
          <path
             d="m 32.75,965.987 c 0,0 6.423,-5.83 10.375,-7.375 5.2035,-2.033 16.625,-2.125 16.625,-2.125 0,0 -1.6821,13.363 1.625,19.625 2.8272,5.353 14.6583,13.989 13.125,14.5 -4.0987,0.691 -4.6142,2.179 -5.875,3.5 0,0 -7.9488,-9.633 -12.25,-14.375 -8.9087,-9.82 -23.625,-13.75 -23.625,-13.75 z"
             id="path4420"
             stroke-miterlimit="4"
             inkscape:connector-curvature="0"
             style="fill:url(#pattern5985);fill-opacity:1;fill-rule:evenodd;stroke:#00ff00;stroke-width:0.35433099;stroke-linecap:butt;stroke-linejoin:miter;stroke-miterlimit:4;stroke-dasharray:none;stroke-opacity:1" />
          <path
             d="m 14.125,1010.36 c 0,0 -3.1231,5.35 -3.125,8.75 -0.002,3.67 3.375,11.25 3.375,11.25 0,0 7.2413,-0.89 7.375,-4.37 -1.5279,-4.09 -2.5,-12 -2.5,-12 -1.697,-0.86 -3.4722,-1.17 -5.125,-3.63 z"
             id="path4422"
             stroke-miterlimit="4"
             inkscape:connector-curvature="0"
             style="fill:url(#pattern5985);fill-opacity:1;fill-rule:evenodd;stroke:#00ffff;stroke-width:0.35433099;stroke-linecap:butt;stroke-linejoin:miter;stroke-miterlimit:4;stroke-dasharray:none;stroke-opacity:1" />
          <path
             d="m 19.25,1013.61 c 0,0 0.8646,8.85 3.125,12.5 1.7887,2.89 7.75,6.63 7.75,6.63 0.7474,0.18 5.9123,-8.83 5,-14.25 -0.6775,-4.03 -5.25,-11.75 -5.25,-11.75 -3.6182,2.98 -7.3218,6.73 -10.625,6.87 z"
             id="path4424"
             stroke-miterlimit="4"
             inkscape:connector-curvature="0"
             style="fill:url(#pattern5985);fill-opacity:1;fill-rule:evenodd;stroke:#ff6600;stroke-width:0.35433099;stroke-linecap:butt;stroke-linejoin:miter;stroke-miterlimit:4;stroke-dasharray:none;stroke-opacity:1" />
        </g>
        <path
           d="m 91.002,40.1992 c -1.8966,0.4643 -2.963,1.915 -3.9356,3.4082 -0.9726,1.4933 -1.8974,3.07 -3.4785,4.1485 -1.7362,1.1841 -2.4707,3.1535 -2.9082,4.8886 -0.2188,0.8676 -0.365,1.6875 -0.5078,2.334 -0.1429,0.6466 -0.5515,0.905 -0.6253,0.99 1.3707,1.802 1.5913,0.676 1.6643,-0.7595 0.1507,-0.6819 -0.1464,-1.7337 0.0606,-2.5547 0.414,-1.6419 1.3359,-3.3822 2.7285,-4.332 1.8176,-1.2397 2.5065,-2.8004 3.457,-4.2598 1.0586,-1.9838 1.8215,-2.5853 3.545,-3.8633 z m -0.9454,9.0781 c -0.7135,-0.0222 -1.6888,1.7709 -2.4453,2.8008 -0.7565,1.0299 -1.6349,2.0138 -3.2187,2.6387 -0.9207,0.3632 -1.3331,1.0018 -1.7578,1.4727 -0.4248,0.4708 -1.1003,0.569 -2.3597,0.8449 l 0.4495,1.3484 c 1.4436,-0.3163 1.825,-1.1165 2.3242,-1.6699 0.4993,-0.5534 0.974,-1.1946 1.6094,-1.4453 1.8194,-0.7178 2.6343,-1.8447 3.4356,-2.9356 0.968,-1.4265 0.9758,-1.618 1.9628,-3.0547 z m -7.375,9.4415 c -0.7302,0.055 -1.3319,0.1963 -1.9882,0.2031 l 0.0098,1.0644 c 0.7048,-0.0072 1.4956,-0.6169 2.0685,-0.6809 0.7052,-0.0789 1.334,0.0988 2.5018,0.4348 1.6589,0.4776 3.7225,1.68 6.166,0.5489 -3.0304,0.4886 -4.3963,-0.1742 -6.1231,-1.0078 -0.9642,-0.3108 -1.7124,-0.5802 -2.6348,-0.5625 z m -2.1308,1.7187 -0.2344,1.0371 c 1.1037,0.2504 1.969,0.598 2.8831,1.1808 0.8568,0.5462 2.2716,0.5643 3.0251,1.2118 1.4589,0.7655 3.125,3.8226 4.3262,2.8496 -1.3256,0.1364 -2.3595,-1.9167 -3.9453,-3.2793 -0.8297,-0.7129 -2.1716,-0.7657 -3.1924,-1.3883 -0.9303,-0.5675 -1.7073,-0.9122 -2.8623,-1.6117 z m -0.4746,1.8105 -0.877,0.5997 c 0.5102,0.7485 2.0064,0.9994 2.6058,1.9155 0.4615,0.7054 0.9216,1.7101 1.5588,2.2923 0.6066,0.5543 2.6919,2.4464 3.5522,2.7179 -0.6207,-0.7487 -2.3338,-2.3747 -3.1297,-3.0131 -0.5216,-0.4858 -1.097,-1.6383 -1.5165,-2.2661 -0.5887,-0.881 -1.6163,-1.3991 -2.1936,-2.2462 z"
           id="path4309"
           stroke-miterlimit="4"
           font-style="normal"
           font-variant="normal"
           font-weight="400"
           font-stretch="normal"
           font-size="12"
           letter-spacing="0"
           word-spacing="0"
           direction="ltr"
           visibility="visible"
           display="inline"
           overflow="visible"
           text-decoration="none"
           transform="translate(0,946.063)"
           inkscape:connector-curvature="0"
           style="color:#000000;font-style:normal;font-variant:normal;font-weight:400;font-stretch:normal;font-size:12px;font-family:arial;text-decoration:none;text-decoration-line:none;letter-spacing:0;word-spacing:0;writing-mode:lr-tb;direction:ltr;text-anchor:start;clip-rule:nonzero;display:inline;overflow:visible;visibility:visible;opacity:1;fill:#000000;fill-opacity:1;fill-rule:evenodd;stroke:none;stroke-width:1.06298995;stroke-linecap:butt;stroke-linejoin:miter;stroke-miterlimit:4;stroke-dasharray:none;stroke-dashoffset:0;stroke-opacity:1" />
        <path
           d="m 28.5742,1008.14 c -0.2995,0.19 -0.9739,1 -1.2734,1.19 1.8948,2.04 2.8667,4.03 3.7232,6.87 0.621,2.24 0.2039,5.71 -0.4302,7.89 -0.7948,1.86 -1.1218,2.66 -1.3692,4.2 1.2667,-2.7 2.6833,-5.33 2.8763,-8.33 0.1851,-2.53 -0.2337,-4.96 -1.313,-7.18 -0.6979,-1.39 -1.3949,-3.31 -2.2137,-4.64 z m -3.1836,2.69 c -0.3021,0.19 -1.2291,0.81 -1.5312,1 2.0529,1.51 2.7569,2.78 3.335,4.67 0.1853,1.41 -0.2,2.47 -0.0335,3.89 0.0748,0.65 0.1758,1.93 0.6262,2.45 0.0214,-1.46 -0.0897,-2.31 -0.112,-3.59 0.0193,-1.17 0.659,-2.58 0.1521,-3.69 -0.6497,-1.65 -1.5349,-3.2 -2.4366,-4.73 z m -3.416,1.64 c -0.2897,2.21 -0.0557,4.35 0.3486,6.56 0.7936,1.76 0.7631,2.15 2.4533,3.94 0.6193,0.45 1.8955,1.83 3.2121,1.81 -2.0218,-1.47 -4.2046,-3.53 -4.9082,-5.98 -0.3875,-2.12 0.1627,-4.17 0.445,-6.29 -0.3503,-0.06 -1.2005,0.01 -1.5508,-0.04 z"
           id="path4320"
           stroke-miterlimit="4"
           font-style="normal"
           font-variant="normal"
           font-weight="400"
           font-stretch="normal"
           font-size="12"
           letter-spacing="0"
           word-spacing="0"
           direction="ltr"
           visibility="visible"
           display="inline"
           overflow="visible"
           text-decoration="none"
           inkscape:connector-curvature="0"
           style="color:#000000;font-style:normal;font-variant:normal;font-weight:400;font-stretch:normal;font-size:12px;font-family:arial;text-decoration:none;text-decoration-line:none;letter-spacing:0;word-spacing:0;writing-mode:lr-tb;direction:ltr;text-anchor:start;clip-rule:nonzero;display:inline;overflow:visible;visibility:visible;opacity:1;fill:#000000;fill-opacity:1;fill-rule:evenodd;stroke:none;stroke-width:1.06298995;stroke-linecap:butt;stroke-linejoin:miter;stroke-miterlimit:4;stroke-dasharray:none;stroke-dashoffset:0;stroke-opacity:1" />
        <path
           d="m 15.4453,1012.47 c 0,0 -0.3391,0.84 -0.6914,1.89 -0.3523,1.05 -0.7265,2.3 -0.7851,3.28 -0.1018,1.71 0.7133,3.6 1.3476,5.35 0.3172,0.88 0.5954,1.72 0.7188,2.42 0.1234,0.71 0.0826,1.26 -0.125,1.63 0.9589,-0.48 0.7671,-1.47 0.6093,-2.31 -0.1447,-0.83 -0.1932,-1.08 -0.5156,-1.97 -0.6448,-1.79 -1.0497,-3.76 -0.9726,-5.05 0.0447,-0.75 0.6398,-1.75 0.9804,-2.76 0.3406,-1.02 1.918,-1.26 1.918,-1.26 z"
           id="path4326"
           stroke-miterlimit="4"
           font-style="normal"
           font-variant="normal"
           font-weight="400"
           font-stretch="normal"
           font-size="12"
           letter-spacing="0"
           word-spacing="0"
           direction="ltr"
           visibility="visible"
           display="inline"
           overflow="visible"
           text-decoration="none"
           inkscape:connector-curvature="0"
           style="color:#000000;font-style:normal;font-variant:normal;font-weight:400;font-stretch:normal;font-size:12px;font-family:arial;text-decoration:none;text-decoration-line:none;letter-spacing:0;word-spacing:0;writing-mode:lr-tb;direction:ltr;text-anchor:start;clip-rule:nonzero;display:inline;overflow:visible;visibility:visible;opacity:1;fill:#000000;fill-opacity:1;fill-rule:evenodd;stroke:none;stroke-width:1.06298995;stroke-linecap:butt;stroke-linejoin:miter;stroke-miterlimit:4;stroke-dasharray:none;stroke-dashoffset:0;stroke-opacity:1" />
        <path
           d="m 50.6289,14.6758 c -1.956,0.1025 -4.2833,0.733 -5.5342,1.3952 -1.1947,0.6326 -2.7118,1.6833 -3.7561,2.7661 -1.1534,1.1961 -2.1238,2.4168 -2.1238,2.4168 l 1.9147,1.1802 c 0,0 0.0545,-1.1398 1.0624,-2.418 0.9752,-1.2366 1.6688,-2.0886 3.3125,-3.1382 0.9029,-0.5766 3.1455,-1.0938 5.041,-1.4204 1.8955,-0.3267 4.0056,-0.1562 4.0056,-0.1562 -1.8456,-0.4851 -3.2561,-0.6604 -3.9221,-0.6255 z m 1.6133,4.7461 c -1.3076,0.0558 -2.703,0.5059 -3.541,0.9902 -0.79,0.4565 -2.059,1.189 -2.7362,2.0564 -0.6771,0.8674 -1.1953,1.5561 -1.1953,1.5561 l 1.369,0.8992 c 0,0 0.5001,-0.7471 1.1504,-1.58 0.6502,-0.833 1.4578,-1.7125 1.8991,-1.9676 0.4831,-0.2792 1.8976,-0.995 3.1511,-1.2168 1.2536,-0.2219 3.4506,-0.3496 3.4506,-0.3496 -1.2612,-0.4149 -2.5544,-0.4303 -3.5477,-0.3879 z m 1.0657,6.1108 c -0.6082,0.327 -1.4416,0.8609 -2.0064,1.3298 -0.5387,0.4472 -0.9678,0.9228 -0.9678,0.9228 l 1.4651,1.0682 c 0,0 0.3195,-0.4874 0.7403,-1.0293 0.4208,-0.5419 1.2715,-1.3835 1.4995,-1.5366 0.7729,-0.5193 3.1593,-1.0484 3.1593,-1.0484 -1.7366,-0.3905 -3.0444,-0.1611 -3.89,0.2935 z m 2.3864,5.9626 c -0.5365,0.1847 -1.0972,0.2825 -1.0972,0.2825 l 1.6451,1.2574 c 0,0 0.0576,-0.4729 0.3049,-0.762 0.2473,-0.2891 0.8896,-0.7521 1.0164,-0.8338 0.3842,-0.2473 1.5247,-0.7578 1.5247,-0.7578 -1.5733,-0.3615 -2.2313,0.1051 -3.3939,0.8137 z m 4.6387,3.5857 c -0.5782,0.3032 -0.9337,0.3381 -1.3375,0.8272 l 1.0204,1.2172 c 0.2683,-0.3941 0.3842,-0.8555 0.7215,-1.2304 0.4082,-0.4536 0.9929,-0.5752 1.7133,-0.7488 -0.6912,-0.5191 -1.2562,-0.5171 -2.1177,-0.0652 z m 3.3766,4.0491 c -0.3211,0.2083 -0.9408,0.9005 -0.9408,0.9005 l 0.7831,0.7201 c 0,0 0.4245,-0.8565 0.6791,-1.0383 0.6639,-0.474 0.9432,-0.5667 1.6985,-0.6939 -0.7206,-0.6371 -1.3143,-0.4759 -2.2199,0.1116 z m 3.752,3.5439 c -0.5533,0.2794 -1.0319,1.074 -1.0319,1.074 l 0.9163,1.2711 c 0,0 0.0408,-1.132 0.6923,-1.5343 1.2585,-0.7771 2.2828,-0.6559 2.2828,-0.6559 -1.0975,-0.5785 -2.1595,-0.5083 -2.8595,-0.1549 z"
           id="path4328"
           stroke-miterlimit="4"
           font-style="normal"
           font-variant="normal"
           font-weight="400"
           font-stretch="normal"
           font-size="12"
           letter-spacing="0"
           word-spacing="0"
           direction="ltr"
           visibility="visible"
           display="inline"
           overflow="visible"
           text-decoration="none"
           transform="translate(0,946.063)"
           inkscape:connector-curvature="0"
           style="color:#000000;font-style:normal;font-variant:normal;font-weight:400;font-stretch:normal;font-size:12px;font-family:arial;text-decoration:none;text-decoration-line:none;letter-spacing:0;word-spacing:0;writing-mode:lr-tb;direction:ltr;text-anchor:start;clip-rule:nonzero;display:inline;overflow:visible;visibility:visible;opacity:1;fill:#000000;fill-opacity:1;fill-rule:evenodd;stroke:none;stroke-width:1.06298995;stroke-linecap:butt;stroke-linejoin:miter;stroke-miterlimit:4;stroke-dasharray:none;stroke-dashoffset:0;stroke-opacity:1" />
        <path
           d="m 67.3966,71.8811 -1.3263,0.9978 c 0.6763,0.4835 1.293,1.1179 2.1555,1.6315 1.3937,0.4773 2.0729,0.743 3.3844,0.2362 -1.0062,-0.1134 -2.4871,-0.5688 -3.0642,-0.9314 -0.6965,-0.4375 -1.0141,-0.9531 -1.1494,-1.9341 z m -5.5611,2.5252 -1.0305,0.7209 c 0.6445,0.4777 0.9023,1.2253 1.6325,1.8162 0.7302,0.5908 1.7117,1.1128 3.248,1.3339 -0.9229,-0.5597 -1.8603,-0.8927 -2.7549,-1.7624 -0.6164,-0.4988 -0.7567,-1.0442 -1.0951,-2.1086 z m -5.9702,2.1704 -0.981,0.3571 c 0.6898,1.0632 0.848,2.1539 1.75,2.9197 0.9623,0.8168 2.0668,1.4147 3.3598,1.6875 -1.2688,-0.809 -2.1293,-1.2878 -2.8652,-2.235 -0.7763,-0.6718 -0.6249,-1.7449 -1.2636,-2.7293 z m -7.8186,1.4912 -1.2088,0.8676 c 0.9148,0.8505 1.6439,2.1079 2.5762,3.2286 0.9322,1.1206 2.1437,2.1134 3.9433,2.2148 -1.908,-1.0701 -2.3331,-1.7077 -3.1269,-2.8945 -0.8496,-1.0212 -1.1024,-2.4111 -2.1838,-3.4165 z"
           id="path4380"
           stroke-miterlimit="4"
           font-style="normal"
           font-variant="normal"
           font-weight="400"
           font-stretch="normal"
           font-size="12"
           letter-spacing="0"
           word-spacing="0"
           direction="ltr"
           visibility="visible"
           display="inline"
           overflow="visible"
           text-decoration="none"
           transform="translate(0,946.063)"
           inkscape:connector-curvature="0"
           style="color:#000000;font-style:normal;font-variant:normal;font-weight:400;font-stretch:normal;font-size:12px;font-family:arial;text-decoration:none;text-decoration-line:none;letter-spacing:0;word-spacing:0;writing-mode:lr-tb;direction:ltr;text-anchor:start;clip-rule:nonzero;display:inline;overflow:visible;visibility:visible;opacity:1;fill:#000000;fill-opacity:1;fill-rule:evenodd;stroke:none;stroke-width:1.06298995;stroke-linecap:butt;stroke-linejoin:miter;stroke-miterlimit:4;stroke-dasharray:none;stroke-dashoffset:0;stroke-opacity:1" />
        <path
           d="m 22.875,987.987 c 0,0 0.2499,-4.366 1.5,-5.625 1.3708,-1.38 3.3136,-1.334 5.125,-0.625 1.8545,0.727 3.2226,2.8 3.625,4.75 0.2777,1.346 -0.5349,3.147 -1.5,4.125 -1.0291,1.044 -3.75,1 -3.75,1 0,0 -1.0728,-2.098 -2,-2.75 -0.8521,-0.599 -3,-0.875 -3,-0.875 z"
           id="path4412"
           stroke-miterlimit="4"
           inkscape:connector-curvature="0"
           style="fill:none;fill-rule:evenodd;stroke:#ff0000;stroke-width:0.35433099;stroke-linecap:butt;stroke-linejoin:miter;stroke-miterlimit:4;stroke-dasharray:none;stroke-opacity:1" />
        <path
           d="m 13.75,1010.49 c -3.2879,-4.49 -7.27665,-8.38 -8.375,-14.753 -1.20833,0.572 -2.41667,-0.203 -3.625,-1.625 -1.101214,-2.8 0.79977,-4.1 2.25,-5.625 -0.83455,-2.91 -0.32607,-5.087 2.5,-6 0,0 5.5549,-9.075 9.875,-11.875 4.5387,-2.941 15.625,-4.375 15.625,-4.375 0.5669,-0.142 8.5059,11.173 8,21.125 -0.3879,7.631 -4.9555,13.638 -10,19.378 -2.8613,3.25 -10.875,7.12 -10.875,7.12 -1.7917,0.06 -3.5833,-1.44 -5.375,-3.37 z"
           id="path4426"
           stroke-miterlimit="4"
           inkscape:connector-curvature="0"
           style="fill:none;fill-rule:evenodd;stroke:#ff00ff;stroke-width:0.35433099;stroke-linecap:butt;stroke-linejoin:miter;stroke-miterlimit:4;stroke-dasharray:none;stroke-opacity:1" />
        <path
           d="m 46.4746,25.5879 -0.7305,0.7734 c 0.6432,0.4017 2.0938,2.5515 1.9747,4.3184 -0.0304,0.4508 -0.1165,1.0918 -0.3985,1.6211 -0.282,0.5292 -0.6937,0.9431 -1.3301,1.1094 -0.6242,0.163 -1.3256,0.3179 -2.0761,0.0937 -1.8139,-0.5418 -3.6504,-1.1678 -5.125,-1.5332 l -0.2559,1.0332 c 3.2927,0.8151 4.8411,1.1775 8.5,3.2891 1.5753,0.9091 3.0875,2.8605 3.1074,5.1679 0.0039,0.4519 -0.1145,1.0919 -0.3965,1.6211 -0.282,0.5293 -0.6937,0.9451 -1.33,1.1114 -0.9983,0.2608 -2.5277,0.5272 -3.9844,-0.0274 -1.619,-0.6164 -2.9738,-1.3824 -4.3828,-1.8633 l -0.3438,1.0059 c 1.3827,0.4718 2.7796,1.0524 4.2989,1.832 0.5346,0.2744 1.1546,0.6138 1.6562,0.9024 1.5764,0.9071 3.0874,2.8605 3.1074,5.1679 0.0039,0.4519 -0.1145,1.0919 -0.3965,1.6211 -0.282,0.5293 -0.6937,0.9451 -1.3301,1.1114 -1.764,0.4609 -4.0523,-0.1618 -7.4726,-1.5782 -0.9244,-0.3827 -1.7729,-0.7984 -2.627,-1.1171 l -0.3711,0.996 c 0.8241,0.3076 1.6667,0.6528 2.5352,1.0762 0.8753,0.4267 1.7817,0.9068 2.5546,1.3477 1.5798,0.9013 3.0875,2.8606 3.1074,5.168 0.0039,0.4519 -0.1145,1.0919 -0.3964,1.6211 -0.2821,0.5293 -0.6938,0.945 -1.3301,1.1113 -1.7775,0.4644 -4.061,-0.2158 -7.5449,-1.6055 -1.6114,-0.6427 -3.2262,-1.0073 -4.7325,-1.4707 l -0.3086,1.0176 c 2.2496,0.6851 4.199,1.1398 6.8301,2.6582 1.5753,0.9091 3.0875,2.8606 3.1074,5.168 0.0039,0.4519 -0.1022,1.149 -0.3964,1.6211 -0.3056,0.4903 -0.7807,0.9325 -1.3301,1.1113 -1.1777,0.3832 -2.2046,0.1656 -3.7071,-0.248 l -0.2832,1.0253 c 1.5965,0.4394 2.9056,0.689 4.2579,0.25 0.8197,-0.2661 1.4991,-0.9372 2,-1.6386 0.2248,-0.3149 0.3206,-0.728 0.4043,-1.0879 0.7114,0.4355 1.5116,1.0309 2.1894,1.7207 0.9076,0.9237 1.5756,2.0057 1.6387,3.0781 0.0261,0.4443 -0.0634,1.3007 -0.334,2.0352 -0.2707,0.7346 -0.6977,1.3101 -1.2559,1.4863 l 0.3203,1.0137 c 1.015,-0.3202 1.6019,-1.2324 1.9336,-2.1328 0.3318,-0.9004 0.4341,-1.8265 0.3965,-2.4649 -0.0856,-1.4555 -0.9297,-2.7302 -1.9414,-3.7598 -0.0606,-0.0617 -0.1276,-0.1138 -0.1894,-0.1738 1.171,0.0965 2.4376,0.2243 3.5468,0.4317 1.8829,0.3521 3.5162,1.0401 4.3067,3.2246 0.1945,0.5376 0.2741,1.619 -0.0547,2.5 l 0.9961,0.373 c 0.4367,-1.1702 0.3594,-2.403 0.0586,-3.2344 -0.2816,-0.7782 -0.6813,-1.3938 -1.1465,-1.9043 0.7566,-0.1148 1.539,-0.3765 2.3594,-0.75 0.7315,-0.333 1.2625,-0.8873 1.6367,-1.4961 0.1693,0.0232 0.3322,0.0425 0.5058,0.0684 1.8939,0.2821 3.5515,0.9135 4.42,3.0684 0.1592,0.3951 0.2743,1.1012 0.1894,1.7968 l 1.0547,0.1289 c 0.1075,-0.8812 -0.0135,-1.7112 -0.2598,-2.3222 -0.4529,-1.1238 -1.1346,-1.9097 -1.9257,-2.4766 1.1579,-0.0549 2.242,-0.4111 3.4785,-1.3301 0.5304,-0.3942 0.886,-0.9093 1.1328,-1.4531 0.1252,-0.0121 0.2458,-0.0258 0.373,-0.0371 1.9081,-0.1699 3.666,0.0501 5.0176,1.9395 0.2093,0.2925 0.4434,0.8092 0.5567,1.3808 l 1.0429,-0.207 c -0.1418,-0.716 -0.4107,-1.3406 -0.7344,-1.793 -0.5605,-0.7835 -1.2139,-1.3222 -1.9101,-1.6972 1.0154,-0.2538 1.9508,-0.7568 2.9414,-1.7461 0.6189,-0.6182 0.9174,-1.3972 1.0352,-2.1582 1.1148,-0.064 2.0213,-0.1164 2.7539,-0.1504 1.2003,-0.0558 2.3209,0.2231 3.3027,0.998 l 0.6582,-0.834 C 78.8997,62.074 78.3318,61.7809 77.746,61.584 c 0.4478,-0.2916 0.9025,-0.6755 1.4063,-1.207 0.7125,-0.7519 0.9861,-1.7183 1.0214,-2.6055 0.0354,-0.8872 -0.1521,-1.704 -0.4472,-2.2929 l -0.9492,0.4765 c 0.1908,0.3808 0.3619,1.0732 0.3339,1.7735 -0.0279,0.7003 -0.2381,1.3984 -0.7304,1.9179 -1.0153,1.0712 -1.5876,1.43 -2.4239,1.5508 -1.0532,0.1522 -2.1406,0.1646 -3.1796,0.2129 -0.0345,-0.6329 -0.1795,-1.2067 -0.3887,-1.6543 -0.3392,-0.7258 -0.7746,-1.2904 -1.2636,-1.75 0.5134,-0.0545 1.0577,-0.1747 1.6582,-0.3789 1.026,-0.3488 1.717,-1.2263 2.1738,-2.1191 0.4568,-0.8928 0.6918,-1.8072 0.7051,-2.4785 l -1.0625,-0.0215 c -0.0081,0.4131 -0.2053,1.2678 -0.5879,2.0156 -0.3826,0.7478 -0.9381,1.3827 -1.5703,1.5977 -1.1249,0.3826 -1.8999,0.4343 -2.6895,0.2871 -0.6805,-0.1269 -1.4269,-0.446 -2.3301,-0.8574 -0.0447,-1.4469 -0.5448,-2.6208 -1.3066,-3.5684 0.3306,0.0157 0.6804,0.0156 1.082,-0.0215 1.0315,-0.0953 1.8748,-0.6413 2.4863,-1.2851 0.6116,-0.6438 1.0095,-1.3822 1.1758,-2.0196 L 69.83,48.8868 c -0.1075,0.4122 -0.4352,1.0485 -0.9179,1.5567 -0.4827,0.5081 -1.1019,0.8931 -1.8145,0.9589 -1.1909,0.1101 -1.7485,-0.0104 -2.5098,-0.3515 -0.6499,-0.4331 -1.3835,-0.8977 -1.9766,-1.2637 0.1446,-1.6337 -0.2284,-3.3242 -1.0546,-4.4648 0.5948,0.1059 1.248,0.1326 2.0078,0.0546 1.0827,-0.1111 1.952,-0.7165 2.5644,-1.4101 l -0.7969,-0.7031 c -0.4855,0.5499 -1.1268,0.9779 -1.8749,1.0547 -1.4458,0.1483 -2.2708,-0.0568 -3.1797,-0.5684 -0.8599,-0.484 -1.8236,-1.3051 -3.2227,-2.3457 0.154,-0.2758 0.2787,-0.5528 0.3613,-0.8125 0.8356,-2.6272 -0.1149,-5.2927 -1.5664,-6.9121 l -0.791,0.709 c 1.214,1.3544 2.0451,3.6818 1.3457,5.8808 -0.1369,0.4307 -0.45,1.0009 -0.8828,1.416 -0.4328,0.4152 -0.9548,0.6808 -1.6113,0.6407 -0.8509,-0.052 -1.7271,-0.3767 -2.711,-0.9434 -0.0522,-2.7246 -1.7672,-4.9339 -3.6347,-6.0117 -0.5782,-0.3337 -1.0974,-0.6142 -1.5938,-0.8731 1.0464,-0.1876 1.8117,-0.9658 2.2871,-1.6972 0.4449,-0.6844 0.5289,-1.4982 0.5235,-2.1309 -0.018,-2.0788 -1.0205,-3.8682 -2.3067,-5.082 z m 9.8809,16.7539 c 0.9701,0.6408 1.9644,1.3647 3.0293,2.2441 1.477,1.2198 2.573,2.6141 2.207,4.9082 -0.0671,0.4207 -0.3325,1.0842 -0.7637,1.6368 -0.4312,0.5525 -1.01,0.9941 -1.7129,1.1289 -1.861,0.3567 -2.7969,0.0159 -4.1582,-0.8047 0.3157,-0.5793 0.9274,-1.5207 1.086,-2.2207 0.5706,-2.52 -0.9839,-4.5282 -2.4473,-5.8828 1.0958,0.0171 1.9901,-0.4393 2.7598,-1.0098 z m -5.3047,0.2734 c 0.4871,0.3781 0.9804,0.7754 1.4941,1.2168 1.4556,1.2509 2.8528,2.9789 2.4512,5.2129 -0.0685,0.3811 -0.402,1.0751 -0.8926,1.6504 -0.4905,0.5753 -1.1281,1.0396 -1.7363,1.166 -0.937,0.1948 -1.7145,0.0709 -2.5567,-0.2734 -0.0836,-2.3862 -1.4025,-4.8783 -3.08,-6.1094 0.7228,-0.0194 1.3915,-0.1116 1.9511,-0.2578 0.9597,-0.2507 1.6162,-0.9183 2,-1.6387 0.1688,-0.3168 0.2852,-0.645 0.3692,-0.9668 z m 11.209,8.2012 c 0.5919,0.3577 1.1898,0.7399 1.8027,1.1777 1.5261,1.0902 2.4871,2.4783 2.2793,4.8282 -0.0375,0.4242 -0.255,1.1061 -0.6465,1.6875 -0.3914,0.5813 -0.9371,1.0625 -1.6289,1.2461 -1.1478,0.3046 -1.9413,0.3463 -2.7109,0.1093 -0.4135,-0.1273 -0.7492,-0.2957 -1.1114,-0.4375 0.1722,-2.4008 -1.0336,-4.6407 -2.5702,-5.9375 0.2021,-0.0533 1.2898,-0.124 1.6425,-0.1855 1.0205,-0.1779 1.7988,-0.8231 2.3496,-1.5195 0.2456,-0.3106 0.4243,-0.6736 0.5938,-0.9688 z M 54.084,52.166 c 1.0458,0.6737 2.1054,1.4758 2.914,2.1426 1.4779,1.2187 2.5731,2.614 2.2071,4.9082 -0.0671,0.4206 -0.3325,1.0842 -0.7637,1.6367 -0.4312,0.5525 -1.01,0.9962 -1.7129,1.1309 -1.3726,0.263 -2.2394,0.1787 -3.1308,-0.2403 -0.447,-0.21 -0.799,-0.4463 -1.2246,-0.6816 0.1052,-0.1117 0.2148,-0.2203 0.3066,-0.3379 0.5463,-0.7 0.8728,-1.4726 0.9766,-2.123 0.4017,-2.5177 -0.7925,-4.3012 -2.25,-5.6036 0.3807,0.0085 0.7694,-0.0122 1.1757,-0.0957 0.5933,-0.1218 1.0737,-0.4832 1.502,-0.7363 z m -4.5586,0.6738 c 0.2895,0.2259 0.5737,0.4403 0.873,0.6875 1.4771,1.2198 2.5731,2.6121 2.2071,4.9063 -0.0671,0.4206 -0.3325,1.0842 -0.7637,1.6367 -0.4312,0.5525 -1.008,0.9961 -1.7109,1.1309 -1.6383,0.314 -2.5569,0.1176 -3.668,-0.5157 -0.2333,-0.1329 -0.4387,-0.3017 -0.6543,-0.4453 -0.0135,-1.9963 -0.9341,-4.1262 -2.1504,-5.3593 1.3479,0.3148 2.5482,0.4435 3.6484,0.0898 1.1988,-0.3854 1.7372,-1.1685 2.2188,-2.1309 z m 17.791,4.5977 c 1.7115,0.2285 3.2077,0.8383 4.1094,2.7676 0.1803,0.3859 0.3342,1.0859 0.2871,1.7851 -0.0471,0.6993 -0.2768,1.3888 -0.7832,1.8946 -1.0283,1.0269 -1.7981,1.3881 -2.8262,1.5644 -0.8413,0.1443 -1.9645,0.1459 -3.3555,0.1895 0.1359,-0.7875 0.095,-1.5385 -0.0781,-2.1153 -0.3263,-1.0874 -0.8831,-1.8952 -1.5566,-2.5175 0.385,-0.0394 0.7871,-0.1061 1.2265,-0.2227 1.0012,-0.2657 1.7424,-0.9432 2.2383,-1.6797 0.3702,-0.5498 0.614,-1.1332 0.7383,-1.666 z m -7.4082,3.0352 c 0.3629,0.1033 0.7539,0.2385 1.0684,0.3691 1.2173,0.5057 2.1901,1.3682 2.6757,2.9863 0.1225,0.408 0.1716,1.1216 0.0235,1.8067 -0.1481,0.685 -0.4764,1.3348 -1.0508,1.7617 -1.1664,0.8669 -1.9787,1.1116 -3.0215,1.1367 -0.8455,0.0204 -1.9471,-0.1361 -3.3105,-0.293 0.2058,-0.6279 0.281,-1.2415 0.2402,-1.7519 -0.1118,-1.4005 -0.5828,-2.4753 -1.2695,-3.3184 0.505,0.0186 1.0512,-0.0248 1.666,-0.1426 1.0173,-0.1949 1.8033,-0.8195 2.3496,-1.5195 0.2619,-0.3356 0.4688,-0.6877 0.6289,-1.0351 z M 45.5605,61.375 c 0.9449,0.6406 2.0821,1.3396 2.7227,2.1269 0.5772,0.7096 0.9428,1.6226 0.8477,3.1797 -0.0188,0.3062 -0.3234,0.9184 -0.8672,1.4239 -0.5598,0.5202 -1.3709,1.1922 -1.918,1.2226 -1.314,0.0731 -2.6817,-0.0834 -3.6543,-0.334 -0.3915,-0.1008 -0.8988,-0.4542 -1.2461,-0.7812 -0.0506,-1.9399 -0.9431,-3.6115 -2.1309,-4.7988 1.4896,0.3848 2.7818,0.4978 3.9922,0.1816 0.9597,-0.2507 1.6162,-0.9183 2,-1.6387 0.1018,-0.1909 0.1841,-0.3868 0.2539,-0.582 z m 5.9473,0.3945 c 0.3886,0.2423 0.7718,0.4768 1.1367,0.6641 1.5864,0.8142 2.6502,1.8855 2.8301,4.1387 0.0339,0.4246 -0.0667,1.1329 -0.3555,1.7715 -0.2888,0.6385 -0.747,1.2053 -1.3984,1.5019 -1.1963,0.5447 -2.2245,0.8094 -3.0352,0.7051 -0.7194,-0.2957 -1.8493,-0.7763 -2.6269,-0.9414 0.3423,-0.2206 0.6645,-0.4682 0.9453,-0.7403 0.6518,-0.6316 1.1401,-1.3446 1.1875,-2.1211 0.1077,-1.7624 -0.358,-3.0101 -1.0801,-3.9101 -0.1325,-0.1653 -0.2774,-0.3089 -0.4218,-0.4531 0.4989,0.016 1.0358,-0.0316 1.6406,-0.1407 0.4444,-0.0801 0.835,-0.3166 1.1777,-0.4746 z"
           id="path4317"
           stroke-miterlimit="4"
           font-style="normal"
           font-variant="normal"
           font-weight="400"
           font-stretch="normal"
           font-size="12"
           letter-spacing="0"
           word-spacing="0"
           direction="ltr"
           visibility="visible"
           display="inline"
           overflow="visible"
           text-decoration="none"
           transform="translate(0,946.063)"
           inkscape:connector-curvature="0"
           style="color:#000000;font-style:normal;font-variant:normal;font-weight:400;font-stretch:normal;font-size:12px;font-family:arial;text-decoration:none;text-decoration-line:none;letter-spacing:0;word-spacing:0;writing-mode:lr-tb;direction:ltr;text-anchor:start;clip-rule:nonzero;display:inline;overflow:visible;visibility:visible;opacity:1;fill:#000000;fill-opacity:1;fill-rule:evenodd;stroke:none;stroke-width:1.06298995;stroke-linecap:butt;stroke-linejoin:miter;stroke-miterlimit:4;stroke-dasharray:none;stroke-dashoffset:0;stroke-opacity:1" />
        <path
           d="m 59.0273,9.59961 c -9.1352,-0.01 -14.4668,1.09419 -18.3261,2.94729 -3.7207,1.7865 -5.9367,4.1806 -8.7422,6.5625 -2.6182,0.0196 -6.2306,0.7304 -9.9531,2 -3.9986,1.3637 -7.9134,3.2116 -10.1114,5.7969 -2.7489,3.2332 -3.64061,4.8516 -5.92575,8.3222 -0.48404,0.7352 -0.69295,0.7696 -1.32422,1.1387 -0.63127,0.3691 -1.57241,1.097 -2.24023,2.4668 -0.1717,1.1468 -0.1684,2.4794 0.30664,3.375 0.10902,0.19 0.20177,0.2625 0.3164,0.4258 -0.19293,0.1443 -0.3961,0.2541 -0.58203,0.4277 -0.93629,1.0647 -1.796384,1.989 -1.857419,3.1895 -0.077646,1.5271 0.826169,3.3312 2.019529,4.0195 0.73452,0.3997 1.06647,0.3833 1.41211,0.4316 1.49462,5.7704 4.75492,8.9877 8.58257,13.6199 -2.0301,2.8968 -2.98665,6.6129 -2.5962,9.884 0.4348,3.6435 1.8259,7.1915 3.1855,10.1582 l 0.3887,0.8457 0.9277,-0.0175 c 1.1921,-0.023 2.857,-0.2219 4.5274,-0.918 1.1627,-0.4846 2.2409,-1.3741 3.1601,-2.4863 2.0086,2.0666 4.0608,3.4781 6.9395,5.4785 l 1.0215,0.7109 0.8359,-0.9238 c 2.4403,-2.6927 4.1888,-6.0126 5.0273,-8.4688 2.731,1.0303 3.8796,1.4174 6.1953,1.5411 1.6563,1.8377 2.8987,3.6639 4.0274,5.4453 0.7088,1.1188 1.8798,1.8759 3.3476,2.4746 1.4645,0.5973 3.2534,0.915 4.9825,0.2246 3.0876,-1.2329 8.5163,-4.0887 13.1191,-7.0996 2.3063,-1.5087 4.3848,-3.0301 5.8633,-4.4473 0.7392,-0.7086 1.3337,-1.3805 1.7441,-2.1269 0.4105,-0.7465 0.6998,-1.8244 0.1289,-2.7403 -0.2916,-0.4678 -1.9562,-1.1973 -2.346,-1.5878 1.0184,-0.6172 2.442,-1.453 2.9191,-1.8795 2.695,2.8203 7.0591,6.3341 10.0832,7.3658 5.4935,1.8742 13.2491,3.1916 18.539,0.7578 l 1.691,-0.7793 -1.201,-1.4239 c -1.596,-1.8888 -6.7557,-7.7184 -7.6618,-18.08 -1.0241,-11.71 8.5408,-22.3327 8.5408,-22.3327 l 1.658,-1.7103 -2.037,-0.7168 c -4.496,-1.584 -10.3289,-0.4811 -14.0857,1.1602 -4.8355,2.1125 -8.2346,5.128 -12.1386,12.0078 -0.6508,1.1469 -1.0664,2.5171 -1.5918,3.625 -0.5105,1.0763 -1.0254,1.6969 -1.3906,1.7383 -0.8058,0.0912 -1.2469,0.1301 -1.8458,0.1568 -0.6932,0.0308 -2.7803,-1.0528 -4.2327,-2.4568 1.0944,-0.6732 2.9281,-1.7696 4.0941,-1.9791 l 1.4866,-0.267 C 74.3722,41.7156 71.5349,39.4728 68.8917,37.1694 66.4696,35.0586 64.0556,32.8046 62.7578,30.4408 61.0746,27.375 59.2956,19.1593 60.4297,11.2168 l 0.2305,-1.61524 z m -0.7137,1.99809 c -0.6895,8.1462 0.9862,16.638 2.8973,20.1191 1.642,2.9908 4.2296,5.106 6.6231,7.1895 1.8954,1.6499 3.5225,3.3479 4.7832,5.25 -0.4365,0.0974 -0.7949,0.1788 -1.2539,0.3085 -0.9742,0.2754 -1.6387,1.0501 -2.4478,1.9119 C 67.815,44.8504 65.1393,41.3789 63.4395,39.5801 57.1534,32.928 50.5391,25.6769 42.0156,22.1113 c -2.4139,-1.0098 -5.2077,-2.1351 -7.5178,-2.4444 2.4222,-2.1218 4.2759,-3.9133 7.1174,-5.2777 3.1074,-1.492 8.9188,-2.6632 16.6984,-2.7915 z m -26.7101,9.6582 c 2.2304,2.0485 4.0214,5.8483 4.9434,8.1914 1.9269,4.8968 3.3774,11.3366 1.623,16.6543 -1.7937,5.4372 -4.9443,9.9122 -8.6894,13.6644 -2.2996,2.3041 -4.9068,4.3021 -7.7832,6.0133 -0.7032,0.4183 -1.4058,0.7809 -2.1368,1.1191 -0.8122,-0.0711 -1.4532,-0.2492 -1.9648,-0.6328 -1.108,-0.8306 -1.8161,-1.6528 -2.6035,-2.5918 -4.4468,-5.392 -7.0785,-8.2887 -8.46876,-14.414 L 6.36133,48.543 5.68164,48.2637 C 4.72749,47.8716 4.18607,47.9077 3.96094,47.7852 3.76413,47.6781 2.73072,47.5585 2.79185,46.6725 c 0.04284,-0.6209 0.24091,-1.3149 0.45259,-1.7883 0.23275,-0.5206 0.3486,-1.0188 1.03579,-1.531 0.31082,0.9386 1.18926,1.7776 1.37026,2.025 0.5967,0.8153 1.63752,1.8364 2.52529,2.3932 1.68772,1.0584 3.60712,1.6087 5.75792,1.8418 2.5948,0.2811 5.2054,-0.7163 6.1388,-3.0992 0,0 -3.2756,1.256 -5.3225,0.9665 C 12.7031,47.1909 10.295,46.6293 9.11719,45.8906 8.77374,45.6752 8.02886,45.0282 7.64454,44.2578 7.45071,43.8693 6.66144,42.7684 6.3125,42.3008 5.83007,41.6543 5.3818,41.1661 5.16992,40.7969 4.98147,40.4685 4.97164,40.3009 5.05273,39.9629 c 0.37065,-0.7104 0.56103,-0.8781 1.02344,-1.1484 0.50814,-0.2971 1.47506,-0.8356 2.25977,-2.0274 2.32146,-3.5258 3.07416,-4.9344 5.71876,-8.0449 1.4863,-1.7482 5.1171,-4.4167 8.8672,-5.6992 3.0628,-1.0475 6.6635,-1.7352 8.6816,-1.7871 z m 2.4453,0.3261 c 2.0001,0.3573 5.0584,1.7728 7.0832,2.6454 8.023,3.4576 13.7621,10.2518 20.1702,16.7927 2.1776,2.2227 4.4793,5.6356 6.5343,7.5329 1.5413,1.423 2.9286,2.3043 3.8901,2.9997 1.3821,0.9997 3.7447,2.7595 5.4727,3.8515 1.2668,0.8006 1.8551,1.6466 2.1081,2.4467 0.2542,0.804 0.2244,1.5033 -0.041,2.3464 -0.6719,2.1335 -1.9379,4.0107 -3.4434,5.3672 -1.5966,1.4386 -3.3714,2.7201 -4.7201,3.2845 -4.2102,1.762 -8.2998,3.6113 -12.5527,5.0704 -5.2313,1.7948 -11.8845,3.5196 -15.3158,3.7251 -3.4366,0.2059 -4.0011,-0.2028 -7.1518,-1.0501 0.6339,-5.0429 -0.7237,-10.7388 -4.8931,-15.9538 3.5534,-3.5235 7.0113,-8.199 8.6855,-14.0566 1.7066,-5.9705 0.4464,-12.6948 -1.6777,-17.7871 -0.992,-2.3782 -2.824,-5.3725 -4.1485,-7.2149 z m -6.0449,7.9805 c -1.3821,0.1968 -2.7782,0.6513 -3.0644,0.6953 -1.0353,0.1592 -2.1408,0.8278 -1.4748,2.2502 0.4636,0.9902 0.9222,0.7038 1.9064,0.5525 0.9319,-0.1432 1.8349,-0.5187 2.8314,-0.9517 0.3292,-0.143 1.0084,-0.3943 1.7387,-0.2841 0.6023,0.0909 1.2798,0.5085 1.4706,0.728 2.6092,3.0017 2.357,2.9221 4.7171,2.3419 -0.564,-0.6465 -1.4692,-0.9047 -2.3301,-1.8513 -0.4909,-0.5397 -0.7969,-1.5164 -1.4453,-2.3811 -0.5726,-0.7638 -1.4389,-1.0842 -2.1894,-1.1817 -0.7396,-0.096 -1.5013,-0.0118 -2.1602,0.082 z m 75.5751,3.9235 c -2.911,3.7301 -9.8378,12.8634 -8.952,22.9925 0.7913,9.0493 6.379,15.7199 8.669,18.6719 -4.0978,0.9341 -12.1894,0.1609 -16.548,-1.3262 -2.2619,-0.7717 -6.4062,-4.7754 -8.7714,-7.4297 0.5182,-0.5334 0.9348,-1.5749 1.2752,-2.1358 0.7618,-1.2553 1.142,-2.1072 1.4259,-3.6806 0.192,-1.0636 0.383,-2.3332 0.0098,-3.5136 -0.3836,-1.2137 -0.7352,-1.8665 -2.1333,-3.146 -0.4592,-0.4201 -1.5777,-1.6338 -2.1172,-1.9444 0.927,0.0366 1.6955,-0.0311 2.2883,-0.3409 0.8292,-0.4335 1.2741,-1.4042 1.6322,-2.1547 0.6443,-1.3507 1.1145,-2.7656 1.498,-3.4414 3.7449,-6.5994 5.7629,-9.5031 10.1816,-11.4336 3.372,-0.9069 8.3359,-2.3128 11.5419,-1.1175 z m -77.1552,0.8285 c -1.3991,0.2367 -2.6535,1.2263 -3.5195,2.7128 -0.823,1.4127 -0.7997,2.9348 -0.8652,4.3926 -1.3889,0.146 -2.2246,0.1189 -3.0788,1.2353 0.6255,0.9628 2.6331,0.1375 3.5141,0.1418 1.0039,0.0048 1.9155,0.0095 2.5835,0.4706 1.0319,0.7124 1.5548,2.4231 2.655,3.7578 1.0563,1.2816 1.7292,1.8557 3.0684,2.1465 -0.0302,0 -1.7495,-1.3661 -1.7391,-2.886 1.4509,-0.3779 3.3484,-0.9675 3.9598,-1.9851 0.8485,-1.498 0.94,-3.3086 0.5175,-4.9571 -0.4224,-1.6484 -1.3545,-3.2005 -2.8027,-4.0703 -1.4661,-0.8805 -2.7962,-1.2123 -4.293,-0.9589 z m 3.3575,2.4628 c 0.9454,0.5845 1.6942,1.7292 2.0214,3.0059 0.3272,1.2767 0.3792,2.7532 -0.3437,3.6445 -0.8212,1.0125 -1.7235,1.047 -2.8962,1.2176 -0.3836,-0.8234 -0.8987,-1.3589 -2.1737,-2.1253 -0.5276,-0.3171 -1.8446,-0.9348 -2.4985,-0.9985 -0.2041,-1.1512 0.0051,-2.4832 0.4961,-3.5234 0.6022,-1.2757 1.5796,-1.7929 2.4219,-1.9532 1.0731,-0.2041 2.229,0.2727 2.9727,0.7324 z m 0.1308,25.0957 c 3.0765,4.8953 4.743,10.5538 3.5215,15.5977 -0.5042,2.0821 -1.5469,5.2963 -3.6094,7.7706 -2.7643,-1.8817 -5.0376,-4.0215 -6.6914,-6.4483 -2.0686,-3.0356 -2.6531,-7.4631 -2.7363,-10.334 0.7754,-0.3363 1.5863,-0.8018 2.1992,-1.1582 1.5373,-0.894 3.602,-2.2699 5.8047,-4.1055 0.4978,-0.4149 1.0047,-0.8596 1.5117,-1.3223 z m -15.2832,4.0743 c 0.6011,0.695 1.2684,1.3135 1.9805,1.791 0.6323,0.424 1.3144,0.711 2.0195,0.8262 0.1017,4.2541 0.733,8.1888 2.0951,10.7654 -0.5952,1.4418 -1.4,2.4536 -2.5912,2.9636 -0.8947,0.3729 -2.3282,0.687 -3.1464,0.7701 -1.1434,-2.6182 -1.8327,-6.3956 -2.1661,-9.1886 -0.3522,-2.9512 0.0528,-5.6468 1.8086,-7.9277 z m 55.8927,5.5806 c 0.6113,-0.2778 1.1904,-0.4807 1.8228,-0.1975 0.6715,0.3008 1.8375,0.8874 1.8135,1.8766 -0.0164,0.6711 -1.1633,1.7163 -1.5559,2.1021 -1.2295,1.208 -3.5458,2.9214 -5.7688,4.3756 -4.4461,2.9084 -10.2578,5.6906 -12.996,6.5873 -0.9733,0.3187 -2.4834,0.1362 -3.3033,-0.1517 -1.0479,-0.3679 -2.1976,-1.7484 -2.276,-1.8722 -1.006,-1.5878 -2.1278,-2.47 -3.5872,-4.1831 5.2015,-0.85 10.6647,-2.7342 15.204,-4.1366 4.0503,-1.2514 7.2217,-2.844 10.6469,-4.4005 z"
           id="path4188"
           stroke-miterlimit="4"
           font-style="normal"
           font-variant="normal"
           font-weight="400"
           font-stretch="normal"
           font-size="12"
           letter-spacing="0"
           word-spacing="0"
           direction="ltr"
           visibility="visible"
           display="inline"
           overflow="visible"
           text-decoration="none"
           transform="translate(0,946.063)"
           inkscape:connector-curvature="0"
           style="color:#000000;font-style:normal;font-variant:normal;font-weight:400;font-stretch:normal;font-size:12px;font-family:arial;text-decoration:none;text-decoration-line:none;letter-spacing:0;word-spacing:0;writing-mode:lr-tb;direction:ltr;text-anchor:start;clip-rule:nonzero;display:inline;overflow:visible;visibility:visible;opacity:1;fill:#000000;fill-opacity:1;fill-rule:evenodd;stroke:none;stroke-width:2.83465004;stroke-linecap:butt;stroke-linejoin:miter;stroke-miterlimit:4;stroke-dasharray:none;stroke-dashoffset:0;stroke-opacity:1" />
        <path
           d="m 31.0243,986.115 c 0,1.332 -0.9438,2.478 -2.2516,2.733 -1.3077,0.255 -2.6127,-0.452 -3.113,-1.687 -0.5004,-1.235 -0.0559,-2.651 1.0604,-3.379 1.1162,-0.727 2.5913,-0.562 3.5188,0.395 0.2646,1.499 -0.8872,1.7 -1.9988,1.938 1.471,1.024 2.0547,0.571 2.7842,0 z"
           id="path4314"
           stroke-miterlimit="4"
           visibility="visible"
           display="inline"
           overflow="visible"
           inkscape:connector-curvature="0"
           style="color:#000000;display:inline;overflow:visible;visibility:visible;opacity:1;fill:#000000;fill-opacity:1;fill-rule:evenodd;stroke:none;stroke-width:2.83465004;stroke-linecap:round;stroke-linejoin:bevel;stroke-miterlimit:4;stroke-dasharray:none;stroke-dashoffset:0;stroke-opacity:1" />
      </g>
      <g
         id="text197"
         font-style="normal"
         font-variant="normal"
         font-weight="400"
         font-stretch="normal"
         font-size="7.05556"
         letter-spacing="0"
         word-spacing="0"
         style="font-style:normal;font-variant:normal;font-weight:400;font-stretch:normal;font-size:7.05556011px;font-family:'Gill Sans Ultra Bold';letter-spacing:0;word-spacing:0;writing-mode:lr-tb;text-anchor:start;fill:#000000;fill-opacity:1;stroke:none;stroke-width:0.26458299">
        <path
           d="m 32.7203,52.9396 v 1.1376 h -1.5675 v 2.6244 h -2.7723 v -2.6244 h -0.5957 v -1.1376 h 0.5957 c 0,-1.0002 0.2627,-1.7795 0.7882,-2.3379 0.5285,-0.5613 1.2541,-0.8419 2.1766,-0.8419 0.3852,0 0.8435,0.0671 1.375,0.2015 v 2.7141 c -0.2687,-0.3255 -0.5598,-0.4882 -0.8733,-0.4882 -0.218,0 -0.3882,0.0687 -0.5106,0.206 -0.1224,0.1373 -0.1836,0.3195 -0.1836,0.5464 z"
           id="path6245"
           font-style="normal"
           font-variant="normal"
           font-weight="400"
           font-stretch="normal"
           font-size="9.17222"
           inkscape:connector-curvature="0"
           style="font-style:normal;font-variant:normal;font-weight:400;font-stretch:normal;font-size:9.17222023px;font-family:'Gill Sans Ultra Bold';writing-mode:lr-tb;text-anchor:start;stroke-width:0.26458299" />
        <path
           d="m 35.2552,51.3273 c -0.215,0 -0.4001,-0.0776 -0.5554,-0.2329 -0.1552,-0.1553 -0.2329,-0.3404 -0.2329,-0.5554 0,-0.2149 0.0777,-0.3986 0.2329,-0.5508 0.1553,-0.1523 0.3404,-0.2284 0.5554,-0.2284 0.215,0 0.3986,0.0761 0.5509,0.2284 0.1522,0.1522 0.2284,0.3359 0.2284,0.5508 0,0.215 -0.0762,0.4001 -0.2284,0.5554 -0.1523,0.1553 -0.3359,0.2329 -0.5509,0.2329 z m 0.7972,-0.0179 v 5.3922 h -2.7678 v -5.3922 c 0.3643,0.206 0.8375,0.309 1.4197,0.309 0.5404,0 0.9898,-0.103 1.3481,-0.309 z"
           id="path6247"
           font-style="normal"
           font-variant="normal"
           font-weight="400"
           font-stretch="normal"
           font-size="9.17222"
           inkscape:connector-curvature="0"
           style="font-style:normal;font-variant:normal;font-weight:400;font-stretch:normal;font-size:9.17222023px;font-family:'Gill Sans Ultra Bold';writing-mode:lr-tb;text-anchor:start;stroke-width:0.26458299" />
        <path
           d="m 36.6391,56.1776 0.618,-1.5137 c 0.1911,0.2567 0.421,0.4583 0.6897,0.6046 0.2688,0.1433 0.533,0.2149 0.7928,0.2149 0.1612,0 0.2896,-0.0358 0.3851,-0.1074 0.0985,-0.0717 0.1478,-0.1643 0.1478,-0.2777 0,-0.1105 -0.0418,-0.206 -0.1254,-0.2866 -0.0806,-0.0836 -0.2971,-0.1762 -0.6494,-0.2777 -0.3553,-0.1015 -0.6464,-0.212 -0.8733,-0.3314 -0.2269,-0.1225 -0.4165,-0.3016 -0.5688,-0.5375 -0.1493,-0.2358 -0.2239,-0.4926 -0.2239,-0.7703 0,-0.5374 0.2299,-0.9539 0.6897,-1.2495 0.4628,-0.2986 1.1107,-0.4479 1.9437,-0.4479 0.9375,0 1.7392,0.1538 2.405,0.4613 l -0.6628,1.3749 c -0.4359,-0.3911 -0.8569,-0.5867 -1.263,-0.5867 -0.1344,0 -0.2433,0.0299 -0.3269,0.0896 -0.0836,0.0597 -0.1254,0.1359 -0.1254,0.2284 0,0.1105 0.0418,0.206 0.1254,0.2867 0.0866,0.0806 0.3135,0.1672 0.6807,0.2597 0.3732,0.0926 0.6808,0.1986 0.9226,0.318 0.2448,0.1194 0.4389,0.2986 0.5822,0.5374 0.1463,0.2389 0.2195,0.5121 0.2195,0.8196 0,0.5554 -0.2254,0.9943 -0.6763,1.3167 -0.4478,0.3195 -1.0286,0.4792 -1.7422,0.4792 -0.9674,0 -1.9556,-0.2015 -2.9648,-0.6046 z"
           id="path6249"
           font-style="normal"
           font-variant="normal"
           font-weight="400"
           font-stretch="normal"
           font-size="9.17222"
           inkscape:connector-curvature="0"
           style="font-style:normal;font-variant:normal;font-weight:400;font-stretch:normal;font-size:9.17222023px;font-family:'Gill Sans Ultra Bold';writing-mode:lr-tb;text-anchor:start;stroke-width:0.26458299" />
        <path
           d="m 45.4754,49.8673 v 2.1452 c 0.427,-0.4986 0.9719,-0.7479 1.6347,-0.7479 0.6121,0 1.0943,0.1791 1.4466,0.5374 0.3553,0.3583 0.533,0.8569 0.533,1.4959 v 3.4037 h -2.6156 v -3.1171 c 0,-0.4538 -0.1746,-0.6807 -0.524,-0.6807 -0.1582,0 -0.3164,0.0701 -0.4747,0.2105 v 3.5873 h -2.7723 v -6.8343 z"
           id="path6251"
           font-style="normal"
           font-variant="normal"
           font-weight="400"
           font-stretch="normal"
           font-size="9.17222"
           inkscape:connector-curvature="0"
           style="font-style:normal;font-variant:normal;font-weight:400;font-stretch:normal;font-size:9.17222023px;font-family:'Gill Sans Ultra Bold';writing-mode:lr-tb;text-anchor:start;stroke-width:0.26458299" />
        <path
           d="m 48.2901,68.1514 -2.9883,-0.0057 5.3631,-12.6884 -1.2976,-4.1479 h 2.7544 l 0.5826,3.2417 0.6893,-3.2417 2.9545,0.1336 z"
           id="path6253"
           font-style="normal"
           font-variant="normal"
           font-weight="400"
           font-stretch="normal"
           font-size="9.17222"
           inkscape:connector-curvature="0"
           style="font-style:normal;font-variant:normal;font-weight:400;font-stretch:normal;font-size:9.17222023px;font-family:'Gill Sans Ultra Bold';writing-mode:lr-tb;text-anchor:start;stroke-width:0.26458299" />
      </g>
      <g
         id="text201"
         font-style="normal"
         font-variant="normal"
         font-weight="400"
         font-stretch="normal"
         font-size="13.083"
         letter-spacing="0"
         word-spacing="0"
         transform="scale(1.03016,0.970727)"
         style="font-style:normal;font-variant:normal;font-weight:400;font-stretch:normal;font-size:13.08300018px;font-family:'Gill Sans Ultra Bold';letter-spacing:0;word-spacing:0;writing-mode:lr-tb;text-anchor:start;fill:#000000;fill-opacity:1;stroke:none;stroke-width:0.272562">
        <path
           d="m 27.6537,60.4418 h 4.7975 c 1.729,0 3.0642,0.4791 4.0054,1.4373 0.9412,0.954 1.4118,2.106 1.4118,3.456 0,0.8603 -0.2151,1.6737 -0.6453,2.4403 -0.4258,0.7623 -1.0519,1.3564 -1.8781,1.7823 -0.8262,0.4216 -1.8249,0.6324 -2.996,0.6324 h -4.6953 z m 4.312,3.7307 v 2.2869 h 0.1086 c 0.5195,0 0.8943,-0.0894 1.1243,-0.2683 0.2342,-0.1831 0.3513,-0.4812 0.3513,-0.8943 0,-0.7496 -0.4365,-1.1243 -1.3095,-1.1243 z"
           id="path6285"
           font-style="normal"
           font-variant="normal"
           font-weight="400"
           font-stretch="normal"
           font-size="13.083"
           inkscape:connector-curvature="0"
           style="font-style:normal;font-variant:normal;font-weight:400;font-stretch:normal;font-size:13.08300018px;font-family:'Gill Sans Ultra Bold';writing-mode:lr-tb;text-anchor:start;stroke-width:0.272562" />
        <path
           d="m 39.2418,70.1901 v -9.7483 h 4.312 v 9.7483 z"
           id="path6287"
           font-style="normal"
           font-variant="normal"
           font-weight="400"
           font-stretch="normal"
           font-size="13.083"
           inkscape:connector-curvature="0"
           style="font-style:normal;font-variant:normal;font-weight:400;font-stretch:normal;font-size:13.08300018px;font-family:'Gill Sans Ultra Bold';writing-mode:lr-tb;text-anchor:start;stroke-width:0.272562" />
      </g>
    </g>
    <path
       d="m 72.1471,231.858 v -41.092 l 25.25,0.018 c 27.6219,0.019 34.8199,0.917 44.0009,5.495 15.36,7.657 24.67,25.73 21.655,42.036 -2.204,11.926 -10.156,22.942 -20.306,28.132 -10.374,5.304 -12.286,5.577 -42.35,6.055 l -28.2499,0.449 z m 47.8719,8.803 c 1.744,-0.608 3.611,-1.928 4.149,-2.934 1.096,-2.047 1.311,-8.932 0.358,-11.416 -0.929,-2.42 -5.758,-4.545 -10.329,-4.545 h -4.05 v 10 10 h 3.351 c 1.843,0 4.777,-0.497 6.521,-1.105 z"
       id="path4587"
       transform="scale(0.264583)"
       inkscape:connector-curvature="0"
       style="fill:#000080;fill-opacity:1;fill-rule:evenodd" />
    <path
       d="m 71.1471,161.266 v -11.5 h -2.5 c -2.2962,0 -2.5,-0.367 -2.5,-4.5 0,-4.086 0.2211,-4.5 2.4062,-4.5 2.1481,0 2.4804,-0.563 3.0986,-5.25 0.3808,-2.887 1.476,-7.05 2.4336,-9.25 2.2181,-5.095 8.8117,-11.059 13.7409,-12.428 4.2675,-1.185 12.4436,-1.397 17.1956,-0.447 l 3.125,0.625 v 10.932 10.932 l -2.222,-1.557 c -4.365,-3.057 -10.7779,-0.677 -10.7779,4 0,2.34 0.2736,2.443 6.4999,2.443 h 6.5 v 4.5 4.5 h -6.5 -6.4999 v 11.5 11.5 h -12 -12 z"
       id="path4589"
       transform="scale(0.264583)"
       inkscape:connector-curvature="0"
       style="fill:#000080;fill-opacity:1;fill-rule:evenodd" />
    <path
       d="m 114.147,149.747 v -23.019 l 2.75,0.769 c 3.549,0.993 14.951,0.993 18.5,0 l 2.75,-0.769 v 23.019 23.019 h -12 -12 z"
       id="path4591"
       transform="scale(0.264583)"
       inkscape:connector-curvature="0"
       style="fill:#000080;fill-opacity:1;fill-rule:evenodd" />
    <path
       d="m 152.234,170.715 c -4.077,-1.068 -7.581,-2.109 -7.786,-2.315 -0.351,-0.351 3.458,-10.725 4.217,-11.485 0.193,-0.193 1.939,0.86 3.879,2.34 6.408,4.888 15.864,4.058 14.181,-1.245 -0.461,-1.452 -2.808,-2.921 -7.577,-4.743 -8.866,-3.388 -11.704,-5.683 -13.005,-10.518 -1.802,-6.689 1.577,-12.208 9.541,-15.589 6.757,-2.868 29.945,-1.659 32.002,1.669 0.293,0.474 -0.586,3.071 -1.955,5.771 l -2.487,4.908 -4.875,-2.412 c -4.003,-1.981 -5.364,-2.226 -7.617,-1.37 -2.048,0.779 -2.663,1.612 -2.424,3.287 0.26,1.826 1.89,2.801 8.781,5.248 10.546,3.745 13.483,7.146 12.771,14.788 -0.52,5.586 -3.23,9.057 -9.233,11.827 -5.428,2.505 -18.513,2.431 -28.413,-0.161 z"
       id="path4593"
       transform="scale(0.264583)"
       inkscape:connector-curvature="0"
       style="fill:#000080;fill-opacity:1;fill-rule:evenodd" />
    <path
       d="m 197.147,143.266 v -29.5 h 11.5 11.5 v 9 c 0,4.95 0.205,9 0.456,9 0.25,0 2.096,-1.113 4.1,-2.473 8.664,-5.88 18.776,-4.313 24.882,3.855 1.877,2.511 2.09,4.41 2.374,21.188 l 0.312,18.43 H 241.209 230.147 V 158.2 c 0,-8.011 -0.437,-15.383 -0.972,-16.382 -1.362,-2.544 -3.629,-3.191 -6.54,-1.865 l -2.488,1.134 v 15.84 15.839 h -11.5 -11.5 z"
       id="path4595"
       transform="scale(0.264583)"
       inkscape:connector-curvature="0"
       style="fill:#000080;fill-opacity:1;fill-rule:evenodd" />
    <path
       d="m 221.486,269.546 c 0.765,-1.804 11.311,-26.738 23.437,-55.41 l 22.045,-52.129 -5.41,-17.162 c -2.976,-9.439 -5.411,-17.593 -5.411,-18.12 0,-0.555 4.768,-0.959 11.327,-0.959 h 11.327 l 2.283,13.25 c 1.256,7.288 2.62,13.614 3.031,14.058 0.411,0.444 1.75,-4.056 2.977,-10 1.226,-5.944 2.556,-12.158 2.957,-13.808 l 0.727,-3 11.936,0.355 c 6.564,0.194 12.093,0.503 12.287,0.684 0.193,0.182 -15.35,32.873 -34.539,72.646 l -34.891,72.315 -12.737,0.28 -12.737,0.28 z"
       id="path4597"
       transform="scale(0.264583)"
       inkscape:connector-curvature="0"
       style="fill:#000080;fill-opacity:1;fill-rule:evenodd" />
    <path
       d="m 177.147,231.766 v -41 h 19 19 v 41 41 h -19 -19 z"
       id="path4599"
       transform="scale(0.264583)"
       inkscape:connector-curvature="0"
       style="fill:#000080;fill-opacity:1;fill-rule:evenodd" />
    <path
       d=""
       id="path4601"
       transform="scale(0.264583)"
       inkscape:connector-curvature="0"
       style="fill:#000080;fill-opacity:1;fill-rule:evenodd" />
    <path
       d="m 127.804,123.711 c -4.823,-3.794 -2.525,-10.945 3.517,-10.945 4.785,0 7.624,6.331 4.576,10.208 -2.143,2.727 -5.208,3.006 -8.093,0.737 z"
       id="path4605"
       transform="scale(0.264583)"
       inkscape:connector-curvature="0"
       style="fill:#ff0000;fill-opacity:1;fill-rule:evenodd" />
  </g>
  <path
     style="opacity:1;fill:#000000;fill-opacity:0;fill-rule:evenodd;stroke-width:0.11123449"
     d="M 3.7101644,28.95942 V 2.9305547 H 59.82797 115.94579 V 28.95942 54.988291 H 59.82797 3.7101644 Z M 87.61975,50.43167 c 0.574196,-0.635566 0.977847,-1.499714 1.044649,-2.236412 l 0.05744,-0.633438 0.847807,-0.07705 c 0.466296,-0.04238 1.323337,-0.161499 1.904537,-0.26471 l 1.056727,-0.187661 -0.0345,-0.721712 C 92.45577,45.460439 92.114169,43.919545 91.817802,43.24956 l -0.209492,-0.473596 0.449424,-0.202663 c 0.247181,-0.111464 0.719783,-0.392049 1.050223,-0.623522 0.69818,-0.48908 0.80029,-0.497332 2.43264,-0.196631 1.215045,0.223827 1.218522,0.223835 1.940249,0.004 0.826127,-0.251658 1.471057,-0.734049 1.769459,-1.323506 0.556757,-1.099804 1.651505,-5.068309 1.956695,-7.093101 0.2839,-1.883566 0.19248,-2.774629 -0.33558,-3.27071 -0.259,-0.243319 -0.32309,-0.254801 -0.83591,-0.149751 -0.486403,0.09964 -0.549038,0.09195 -0.504231,-0.06192 0.02814,-0.09663 0.08314,-0.356539 0.12223,-0.577577 l 0.07107,-0.401883 1.129131,-0.07777 c 2.26636,-0.156092 3.39701,-0.498804 5.0323,-1.525345 2.10158,-1.319255 3.73263,-3.17395 4.1086,-4.671963 l 0.0719,-0.286351 -0.96621,-0.0784 c -2.64214,-0.214384 -5.2278,-1.367778 -7.09727,-3.165902 -0.85881,-0.826032 -1.41499,-1.591332 -1.9903,-2.738649 -0.799698,-1.594796 -1.341665,-3.58312 -1.505238,-5.522299 l -0.08112,-0.9616826 -0.722884,0.3498936 c -0.866502,0.419408 -2.07864,1.573776 -2.761828,2.630201 -0.571093,0.883092 -1.093817,2.204598 -1.317064,3.329687 -0.299807,1.51092 -0.01016,3.926218 0.687848,5.735924 0.529873,1.373777 0.534339,1.461697 0.09874,1.943849 -0.370805,0.410438 -0.99465,0.670162 -1.609698,0.670162 -0.213881,0 -0.234516,-0.04297 -0.17359,-0.361512 0.03803,-0.198832 0.219482,-0.656363 0.403224,-1.016735 0.183746,-0.360372 0.334082,-0.694235 0.334082,-0.741917 0,-0.04768 -0.362903,-0.169836 -0.80645,-0.271454 -0.685493,-0.157049 -1.190177,-0.173522 -3.364843,-0.109825 -2.833874,0.083 -3.245664,0.03359 -4.337128,-0.520414 -1.648401,-0.836695 -3.787419,-2.641955 -4.956613,-4.183214 l -0.529391,-0.697854 -1.179896,1.254027 c -1.490919,1.584587 -2.370968,2.763397 -3.012275,4.034887 -0.634717,1.258421 -0.915498,2.371213 -1.013992,4.01862 l -0.07731,1.293222 -0.713104,0.94549 c -0.824127,1.092685 -2.027486,3.483001 -2.356564,4.680989 -0.434131,1.580441 -0.414777,2.446435 0.114469,5.121496 0.170045,0.859488 0.20905,1.346975 0.152683,1.908238 -0.09607,0.956648 0.11593,1.461955 0.787397,1.876768 0.437581,0.270322 0.470358,0.325935 0.517028,0.877215 0.05582,0.659413 0.312782,1.082133 0.848505,1.395862 0.401561,0.235162 1.264764,0.283697 1.504661,0.0846 0.130601,-0.108389 0.269021,-0.08137 0.699947,0.136639 1.076965,0.544837 2.150636,0.783134 4.742666,1.052612 l 0.757245,0.07873 0.243864,0.723024 c 0.670586,1.98819 1.86583,3.124911 4.470777,4.251872 0.672967,0.291142 1.255297,0.529767 1.294061,0.53028 0.03877,5.29e-4 0.249748,-0.197495 0.468849,-0.440015 z M 66.98923,30.224745 c 5.151519,-10.683358 9.34983,-19.440854 9.329585,-19.461102 -0.07658,-0.07657 -6.816575,-0.358275 -6.881382,-0.28761 -0.03737,0.04074 -0.330431,1.325466 -0.651254,2.854941 -0.320823,1.529475 -0.662066,3.131251 -0.758316,3.559504 l -0.175004,0.778642 -0.421695,-2.335925 c -0.231934,-1.284758 -0.528661,-2.924077 -0.659395,-3.64293 l -0.237696,-1.307006 h -3.214009 c -2.257102,0 -3.214009,0.03631 -3.214009,0.12197 0,0.06708 0.656036,2.222187 1.457861,4.789119 0.801825,2.56693 1.434608,4.777056 1.406186,4.911391 -0.02842,0.134333 -2.811821,6.768932 -6.185327,14.74355 -3.37351,7.974622 -6.133651,14.51784 -6.133651,14.540488 0,0.04876 1.903687,0.101849 4.848475,0.135207 l 2.123233,0.02405 z M 26.711437,49.230919 c 2.87553,-0.649985 4.737851,-1.610589 6.420254,-3.311632 1.055256,-1.066948 1.804907,-2.26881 2.326242,-3.7295 0.51812,-1.451681 0.663316,-2.480111 0.591561,-4.190046 C 35.932212,35.2048 35.032626,33.144379 33.033305,31.09143 31.614414,29.634478 30.075401,28.72539 28.018886,28.129434 26.118836,27.578821 25.06015,27.513372 18.05372,27.513372 h -6.445905 v 11.019623 11.019623 l 7.035583,-0.04416 c 6.653197,-0.04176 7.091696,-0.05685 8.068039,-0.277539 z M 49.761246,38.525587 V 27.513372 h -5.22802 -5.228022 v 11.012215 11.012215 h 5.228022 5.22802 z M 39.332538,23.012353 c 1.754825,-0.371873 3.169305,-1.469874 3.581426,-2.780111 0.282289,-0.897465 0.201371,-2.139042 -0.189254,-2.903885 -0.563139,-1.102624 -1.455811,-1.671269 -3.490676,-2.223613 -1.607637,-0.436377 -1.958858,-0.658534 -1.958858,-1.239027 0,-0.506715 0.409493,-0.736754 1.199041,-0.67358 0.724024,0.05793 1.350435,0.326798 2.195625,0.9424 l 0.530381,0.386306 0.78785,-1.631169 c 0.433316,-0.897143 0.770284,-1.647026 0.748816,-1.666407 -0.130829,-0.118112 -1.762866,-0.632008 -2.500318,-0.787301 -1.333661,-0.280842 -3.875853,-0.340572 -5.134381,-0.120634 -1.886584,0.329696 -3.210281,1.125233 -3.770486,2.26605 -0.264482,0.538602 -0.31347,0.777418 -0.31347,1.528234 0,0.747922 0.04933,0.990317 0.309208,1.519523 0.552942,1.125969 1.32121,1.646273 3.490708,2.36406 1.33302,0.441036 1.817427,0.76831 1.817427,1.227892 0,0.337847 -0.327331,0.694579 -0.730085,0.795665 -0.495036,0.124245 -1.492097,-0.04 -2.126215,-0.350241 -0.333092,-0.162966 -0.879962,-0.564144 -1.215266,-0.891504 -0.603548,-0.589254 -0.61066,-0.592521 -0.711665,-0.326864 -0.05611,0.147587 -0.379367,0.949946 -0.718344,1.783019 -0.338976,0.833074 -0.616322,1.53345 -0.616322,1.556392 0,0.07077 2.361125,0.809327 3.177171,0.993822 1.822039,0.411935 4.303923,0.513616 5.637687,0.230973 z m -21.49559,-3.007309 v -3.058949 h 1.835369 1.835369 v -1.390431 -1.390431 h -1.779752 -1.779751 l 7.67e-4,-0.305895 c 9e-4,-0.369418 0.335877,-0.905626 0.687782,-1.100903 0.35504,-0.197018 1.261834,-0.185537 1.69813,0.0215 0.199335,0.09459 0.504085,0.319841 0.67722,0.500556 0.17309,0.180714 0.355436,0.328571 0.405169,0.328571 0.04973,0 0.09042,-1.42159 0.09042,-3.159089 V 7.2908868 l -0.528348,-0.121001 c -5.45994,-1.250384 -9.117448,1.0695406 -9.570815,6.0706902 l -0.07878,0.86904 -0.695216,0.03312 -0.6952161,0.03312 v 1.385124 1.385123 h 0.7230251 0.723025 V 20.005052 23.064 h 3.225802 3.2258 z m 11.457153,-3.273625 v -6.332574 l -0.695216,0.29798 c -0.663019,0.284181 -0.782791,0.297987 -2.586202,0.298103 -1.792671,1.11e-4 -1.927131,-0.01511 -2.586202,-0.292843 L 22.731266,10.40912 v 6.327436 6.327436 h 3.281417 3.281418 z m 21.80196,2.129646 v -4.202927 l 0.344992,-0.203793 c 0.508024,-0.300098 1.182711,-0.257992 1.53675,0.09591 l 0.28733,0.287215 0.03172,4.113264 0.03172,4.113263 h 3.11065 3.110652 l -7.94e-4,-4.143485 C 59.548295,14.535259 59.480441,13.692368 59.0535,12.755319 57.853663,10.121928 53.931308,9.4638054 51.610678,11.506505 l -0.514522,0.452944 V 9.5028374 7.0462298 h -3.225799 -3.225802 v 8.0088792 8.008883 h 3.225802 3.225799 z m -22.969922,-8.49029 c 0.954453,-0.3910336 1.384575,-1.8088306 0.80645,-2.6582716 -0.440043,-0.6465556 -0.795008,-0.8331256 -1.585092,-0.8331256 -0.790084,0 -1.145049,0.18657 -1.585091,0.8331256 -0.293792,0.431668 -0.339247,1.287926 -0.09336,1.758596 0.482541,0.9236566 1.49431,1.2941206 2.45709,0.8996756 z"
     id="path4594"
     inkscape:connector-curvature="0" />
</svg>
